<?xml version="1.0" encoding="UTF-8"?>
<svg version="1.1" xmlns="http://www.w3.org/2000/svg" width="640" height="480">
<path d="M0 0 C166.3013245 0 166.3013245 0 208.46484375 40.359375 C238.78548468 72.16040889 248.86319313 117.50782194 248.18359375 160.12109375 C247.23036275 196.49188884 237.22230727 234.02810957 213 262 C212.56719727 262.50821289 212.13439453 263.01642578 211.68847656 263.54003906 C188.49997246 290.62434736 159.63189958 302.22801674 125 308 C83.75 308 42.5 308 0 308 C0 206.36 0 104.72 0 0 Z M44 35 C44 113.54 44 192.08 44 273 C111.23837365 277.56982099 111.23837365 277.56982099 169.21875 249.81640625 C170.1365625 248.88699219 171.054375 247.95757812 172 247 C172.8146875 246.18402344 173.629375 245.36804688 174.46875 244.52734375 C200.19536448 217.43510418 203.83862601 178.24256674 203.13183594 142.73291016 C201.98218722 110.18081954 191.097487 78.46246787 167.17578125 55.76171875 C134.15853854 25.99811198 83.39912041 35 44 35 Z " fill="#000000" transform="translate(202,85)"/>
</svg>
