<?xml version="1.0" encoding="UTF-8"?>
<svg version="1.1" xmlns="http://www.w3.org/2000/svg" width="640" height="480">
<path d="M0 0 C11.13819153 8.80363741 18.67681085 20.4900339 23 34 C23.54527344 33.10539062 24.09054687 32.21078125 24.65234375 31.2890625 C37.27872516 10.90239335 53.11233065 -2.44594402 76.625 -8.2734375 C77.73875 -8.51320312 78.8525 -8.75296875 80 -9 C80.88816406 -9.19335938 81.77632812 -9.38671875 82.69140625 -9.5859375 C104.83432909 -12.3570707 128.84305691 -10.04414422 147.375 3.25 C166.1691253 18.36098128 174.13684143 38.58169459 177 62 C177.44382669 67.56337429 177.3832794 73.13259556 177.34057617 78.70922852 C177.33972692 80.2979226 177.34021083 81.88661787 177.34190369 83.47531128 C177.34275347 87.72840825 177.3252956 91.98124384 177.30418181 96.23428082 C177.28524245 100.70117138 177.28365114 105.16806999 177.28010559 109.63499451 C177.27083525 118.06702705 177.24629042 126.49894088 177.21605712 134.93092149 C177.1823557 144.54175692 177.1659878 154.15259845 177.15097082 163.7634784 C177.11973551 183.50906628 177.0647873 203.25449173 177 223 C163.14 223 149.28 223 135 223 C134.98018066 218.36743164 134.96036133 213.73486328 134.93994141 208.96191406 C134.87297093 193.63898578 134.79543021 178.31612436 134.71247292 162.99327469 C134.66244367 153.70500571 134.61599997 144.41674512 134.578125 135.12841797 C134.54508726 127.02862153 134.50519176 118.92889218 134.45720994 110.82916999 C134.43206158 106.54415947 134.41024649 102.25919278 134.39665604 97.97412872 C134.38372902 93.93251271 134.36156255 89.89104794 134.33261681 85.84951591 C134.32362347 84.37424554 134.31787034 82.89895087 134.31578636 81.42365456 C134.28888812 65.25943117 132.82414039 48.30928313 121.1015625 36.0078125 C111.86250102 27.15776414 101.03626926 24.17622194 88.39453125 23.9296875 C75.30168331 24.39098991 63.59953148 27.83771426 54 37 C53.44957031 37.52207031 52.89914062 38.04414063 52.33203125 38.58203125 C39.96479645 51.64869835 38.54642608 69.59953927 38.56762695 86.65600586 C38.55858132 88.15574434 38.5482474 89.65547551 38.53674316 91.15519714 C38.50947523 95.17486213 38.49993041 99.19438574 38.49388909 103.21413112 C38.4844256 107.43419656 38.45821667 111.65415959 38.43388367 115.87416077 C38.39043221 123.84223326 38.36175476 131.81028564 38.33856028 139.77844006 C38.31139324 148.85969052 38.26748947 157.94083687 38.22227156 167.02201259 C38.12973155 185.6813001 38.0601199 204.34057792 38 223 C24.14 223 10.28 223 -4 223 C-4.02187378 216.03712891 -4.02187378 216.03712891 -4.04418945 208.93359375 C-4.09463366 193.55878686 -4.16109831 178.18407961 -4.23571491 162.80937195 C-4.28054592 153.49206682 -4.31998934 144.17479883 -4.34643555 134.85742188 C-4.369519 126.72972915 -4.40303103 118.60215523 -4.44870156 110.47455692 C-4.47249526 106.17710209 -4.49131423 101.87976391 -4.49761391 97.58224487 C-4.5037282 93.52414296 -4.52395192 89.46633897 -4.55427551 85.40834808 C-4.56295543 83.93153719 -4.56679962 82.45468719 -4.56500816 80.97785187 C-4.55088344 63.93668231 -6.50228617 47.4102494 -18 34 C-26.63424425 26.62491637 -38.32102551 23.5541306 -49.58984375 23.79296875 C-65.94947365 25.198253 -79.81231569 32.10921521 -91.42902946 43.49569607 C-93 45 -93 45 -94.57219124 46.22916508 C-98.86536301 50.12333917 -99.46995225 53.6343462 -99.75949097 59.33360291 C-99.81667632 62.38747743 -99.79769528 65.43779577 -99.77294922 68.49194336 C-99.78112526 70.17769788 -99.79193069 71.86344139 -99.80516052 73.54916382 C-99.83355544 78.11288223 -99.82525829 82.67587782 -99.81029272 87.23963237 C-99.80090417 92.01363677 -99.82537124 96.78746578 -99.84622192 101.56141663 C-99.88054957 110.59586376 -99.88450148 119.63005772 -99.87749684 128.66455704 C-99.87100268 138.95238764 -99.89843738 149.24004064 -99.92869925 159.52781856 C-99.99017579 180.68528556 -100.00463974 201.84243707 -100 223 C-113.86 223 -127.72 223 -142 223 C-142 147.1 -142 71.2 -142 -7 C-114 -7 -114 -7 -108 -4 C-105.950293 -1.1033256 -105.5072725 1.95636499 -104.9296875 5.421875 C-104.75566406 6.44667969 -104.58164063 7.47148437 -104.40234375 8.52734375 C-104.22832031 9.59082031 -104.05429688 10.65429688 -103.875 11.75 C-103.69324219 12.82894531 -103.51148438 13.90789062 -103.32421875 15.01953125 C-102.87708755 17.67878521 -102.43590482 20.33888675 -102 23 C-101.45351807 22.34539795 -100.90703613 21.6907959 -100.34399414 21.01635742 C-76.40419781 -7.2987966 -33.0364465 -22.64205235 0 0 Z " fill="#000000" transform="translate(304,152)"/>
</svg>
