<?xml version="1.0" encoding="UTF-8"?>
<svg version="1.1" xmlns="http://www.w3.org/2000/svg" width="640" height="480">
<path d="M0 0 C23.52780417 -0.44540387 45.46638456 5.52337837 62.7578125 22.12109375 C80.7222911 41.86163912 84.93750294 66.7760025 84.87133789 92.55493164 C84.8710554 94.1030375 84.87121496 95.65114349 84.8717804 97.19924927 C84.87206597 101.37834699 84.86620816 105.55741569 84.85920644 109.7365067 C84.85293282 114.11270197 84.85236594 118.48889798 84.85118103 122.86509705 C84.8480795 131.14151525 84.83988205 139.41792017 84.82983154 147.69433254 C84.81863374 157.12120408 84.81315073 166.54807627 84.80813611 175.97495282 C84.79769841 195.35700732 84.78012187 214.73904946 84.7578125 234.12109375 C80.36220211 234.23739157 75.96698821 234.30838009 71.5703125 234.37109375 C70.32443359 234.40460938 69.07855469 234.438125 67.79492188 234.47265625 C66.59287109 234.48554688 65.39082031 234.4984375 64.15234375 234.51171875 C63.04737549 234.53266602 61.94240723 234.55361328 60.80395508 234.57519531 C57.06302915 234.01751941 55.43888986 232.73336733 52.7578125 230.12109375 C51.76293945 228.01806641 51.76293945 228.01806641 51.24609375 225.78515625 C51.04564453 224.96789062 50.84519531 224.150625 50.63867188 223.30859375 C50.45111328 222.46296875 50.26355469 221.61734375 50.0703125 220.74609375 C49.67220904 219.07122484 49.27250429 217.39673564 48.87109375 215.72265625 C48.59386475 214.53978027 48.59386475 214.53978027 48.31103516 213.33300781 C47.61244066 210.539863 46.72472143 207.83197083 45.7578125 205.12109375 C45.06558594 205.79914063 44.37335938 206.4771875 43.66015625 207.17578125 C20.75701704 229.15197388 -4.99018412 238.70168223 -36.67578125 238.3359375 C-53.86609729 237.86644795 -70.32377857 232.31453655 -82.49609375 219.8046875 C-93.60643543 206.67045057 -98.02808197 191.25590271 -97.5234375 174.203125 C-96.03541031 157.89682706 -88.3818103 144.61874091 -75.90234375 134.16015625 C-73.4178848 132.33298345 -70.88444906 130.71165345 -68.2421875 129.12109375 C-67.21222656 128.486875 -66.18226563 127.85265625 -65.12109375 127.19921875 C-33.48664212 108.59924891 7.7546163 103.98944498 43.7578125 105.12109375 C43.56719262 100.83718325 43.35437064 96.55505321 43.12304688 92.27319336 C43.04763633 90.8239368 42.97775435 89.37437938 42.9140625 87.92456055 C42.209419 72.06457676 40.09339353 55.6937884 27.9453125 44.24609375 C18.27588908 36.47765338 5.95054726 34.24461921 -6.2421875 35.12109375 C-7.76199219 35.22357422 -7.76199219 35.22357422 -9.3125 35.328125 C-24.45199201 36.8972523 -37.12148505 43.53599103 -49.65625 51.7890625 C-56.57955045 56.31955175 -61.69816725 59.46716659 -70.2421875 58.12109375 C-78.59057419 54.4285381 -82.52446615 44.98550431 -86.2421875 37.12109375 C-65.83916719 14.72753487 -35.80730518 2.12350002 -5.859375 0.2109375 C-3.90613533 0.14388599 -1.95302847 0.07294444 0 0 Z M-48.625 154.2265625 C-55.23223322 161.96692025 -56.67523747 169.42264686 -56.58203125 179.375 C-55.83724784 187.58473899 -52.52137427 195.10834728 -46.3359375 200.65625 C-34.70596931 208.79288819 -20.6696804 209.77089716 -6.93896484 207.78857422 C0.94638444 206.26789122 8.66930849 203.93487062 15.7578125 200.12109375 C16.51835937 199.72535156 17.27890625 199.32960938 18.0625 198.921875 C25.69622124 194.66601443 32.35882946 189.04037244 38.7578125 183.12109375 C39.63421387 182.46286621 40.51061523 181.80463867 41.41357422 181.12646484 C44.87956916 176.68297414 44.38720085 172.83183188 44.24609375 167.3515625 C44.23901901 166.31542313 44.23194427 165.27928375 44.22465515 164.21174622 C44.19671857 160.90995378 44.1339788 157.60987159 44.0703125 154.30859375 C44.0452288 152.06708182 44.02241576 149.82554325 44.00195312 147.58398438 C43.94689456 142.09577295 43.86327531 136.60855554 43.7578125 131.12109375 C15.43163876 131.12109375 -26.6565399 133.34238262 -48.625 154.2265625 Z " fill="#000000" transform="translate(316.2421875,140.87890625)"/>
</svg>
