<?xml version="1.0" encoding="UTF-8"?>
<svg version="1.1" xmlns="http://www.w3.org/2000/svg" width="640" height="480">
<path d="M0 0 C2.83714601 1.21229717 5.15214396 1.2129053 8.23553467 1.25112915 C9.45649841 1.27099884 10.67746216 1.29086853 11.9354248 1.31134033 C13.9059079 1.32866714 13.9059079 1.32866714 15.91619873 1.34634399 C17.27812873 1.36506096 18.64004721 1.38463477 20.00195312 1.4050293 C23.5791544 1.456301 27.15639325 1.49595302 30.73376465 1.53317261 C34.3871181 1.57324354 38.04031591 1.62432175 41.69354248 1.67446899 C48.85619602 1.77116943 56.01892501 1.85559277 63.18182373 1.93228149 C63.32766437 5.16096895 63.41606479 8.38880514 63.49432373 11.61978149 C63.55716553 12.98779907 63.55716553 12.98779907 63.62127686 14.38345337 C63.70549201 19.01528684 63.73185155 21.19953256 60.87713623 25.00259399 C57.43098384 27.46983933 54.28466925 28.27506052 50.18182373 28.93228149 C49.05389404 29.11661743 47.92596436 29.30095337 46.76385498 29.49087524 C41.18714541 30.34295416 35.83294854 31.05251819 30.18182373 30.93228149 C30.68842529 32.24325806 30.68842529 32.24325806 31.20526123 33.58071899 C38.79910385 54.518655 39.2990952 76.20833095 29.90447998 96.72134399 C20.88657643 114.457387 6.07020652 126.20076284 -12.24786377 133.25259399 C-23.37787179 136.855834 -34.39853413 138.27825646 -46.06817627 138.18228149 C-47.69517456 138.18409424 -47.69517456 138.18409424 -49.3550415 138.1859436 C-55.6856921 138.14127878 -61.65944554 137.60930226 -67.88067627 136.49478149 C-72.82122819 135.71697416 -72.82122819 135.71697416 -77.45880127 137.14712524 C-81.91232482 140.80766528 -85.36572489 145.29327972 -86.09161377 151.13150024 C-86.29491639 155.86219582 -86.00478585 159.21457032 -82.81817627 162.93228149 C-70.14892142 173.18834494 -51.16576224 172.27758025 -35.71783447 173.13583374 C22.87172076 176.4568859 22.87172076 176.4568859 42.18182373 189.93228149 C42.81604248 190.37056274 43.45026123 190.80884399 44.10369873 191.26040649 C52.43671179 197.67608912 57.82344595 207.58677929 59.18182373 217.93228149 C60.73635785 237.33373099 57.11640736 254.18737421 45.01385498 269.71353149 C42.82319855 272.22600117 40.55442164 274.59147719 38.18182373 276.93228149 C37.42256592 277.70185181 36.66330811 278.47142212 35.88104248 279.26431274 C21.85923958 292.73534106 2.99140157 300.12948587 -15.81817627 303.93228149 C-17.48300049 304.27259399 -17.48300049 304.27259399 -19.18145752 304.61978149 C-51.33370669 309.95994745 -88.81037598 306.38856387 -116.53692627 288.14321899 C-118.73314199 286.49605721 -120.77773529 284.76744672 -122.81817627 282.93228149 C-123.48977783 282.38700806 -124.16137939 281.84173462 -124.85333252 281.27993774 C-132.33602356 274.69113273 -139.14616015 262.90378304 -139.99517822 252.83267212 C-140.38946032 238.39346463 -139.93135055 226.17964354 -129.81817627 214.93228149 C-128.99059814 213.95001587 -128.99059814 213.95001587 -128.14630127 212.94790649 C-123.12251129 207.40885601 -117.30666021 204.08564258 -110.79473877 200.59634399 C-107.80859575 199.10413608 -107.80859575 199.10413608 -105.81817627 196.93228149 C-106.32606689 196.58036743 -106.83395752 196.22845337 -107.35723877 195.86587524 C-115.50603099 190.02132951 -121.00696005 184.17714639 -123.50567627 174.18228149 C-124.87226662 159.9697418 -121.9937091 149.08229608 -112.81817627 137.93228149 C-108.42801408 132.84684475 -103.66085236 129.2254262 -97.81817627 125.93228149 C-98.54520752 125.35349243 -99.27223877 124.77470337 -100.02130127 124.17837524 C-115.7316203 111.56184809 -126.00191685 96.99153241 -129.81817627 76.93228149 C-130.22904661 72.65084085 -130.29670217 68.41884752 -130.25567627 64.11978149 C-130.24665283 62.98049194 -130.23762939 61.84120239 -130.22833252 60.66738892 C-129.84257436 41.84694504 -123.20777057 25.00707386 -109.79473877 11.65103149 C-82.34119798 -14.14473078 -32.54649612 -19.11283124 0 0 Z M-79.81817627 30.93228149 C-86.83925761 39.3256651 -91.00505231 48.95510803 -91.81817627 59.93228149 C-91.88134033 60.61935181 -91.94450439 61.30642212 -92.00958252 62.01431274 C-92.66562603 74.7754171 -88.58747963 88.37446587 -80.04083252 97.91665649 C-69.6820807 107.83055394 -56.51493256 110.41404562 -42.66583252 110.17837524 C-30.29037421 109.38684847 -20.17294979 105.7839716 -11.50567627 96.74478149 C-2.93842064 86.41215198 0.39695812 73.20382739 -0.81817627 59.93228149 C-2.50648357 48.49663749 -5.64381434 36.74195502 -14.97442627 29.18618774 C-20.31262777 25.22372644 -25.34941068 22.49246614 -31.81817627 20.93228149 C-32.54134033 20.74923462 -33.26450439 20.56618774 -34.00958252 20.37759399 C-49.51664123 17.91889484 -68.05646412 19.47215171 -79.81817627 30.93228149 Z M-95.93927002 218.65493774 C-102.89593701 227.08682309 -103.76144607 236.40793421 -102.81817627 246.93228149 C-100.91320636 253.07403095 -97.72548981 257.76106499 -92.81817627 261.93228149 C-92.11692627 262.59228149 -91.41567627 263.25228149 -90.69317627 263.93228149 C-72.18790206 276.80551573 -45.59369786 277.18883654 -24.03692627 274.43618774 C-9.23154444 271.68350646 5.49379595 265.93537046 15.18182373 253.93228149 C20.09860564 245.9667959 21.17228963 238.24711246 20.18182373 228.93228149 C17.83266801 222.72310228 13.44007026 218.71824582 7.66619873 215.55337524 C-8.07152777 208.74118791 -25.18504841 208.26549836 -42.06817627 207.30728149 C-45.0944057 207.12607595 -48.12045896 206.94214684 -51.14648438 206.75756836 C-53.0838244 206.64092539 -55.02136682 206.52759048 -56.95910645 206.41778564 C-60.95903199 206.18842908 -64.9456395 205.94423299 -68.93048096 205.52359009 C-70.63832764 205.34690796 -70.63832764 205.34690796 -72.38067627 205.16665649 C-73.31524658 205.05289673 -74.24981689 204.93913696 -75.21270752 204.82192993 C-83.41434663 205.1693007 -90.58955932 213.05640329 -95.93927002 218.65493774 Z " fill="#000000" transform="translate(357.81817626953125,104.06771850585938)"/>
</svg>
