<?xml version="1.0" encoding="UTF-8"?>
<svg version="1.1" xmlns="http://www.w3.org/2000/svg" width="640" height="480">
<path d="M0 0 C16.77895901 13.84886073 24.67639283 34.8537714 27 56 C27.65975076 67.56401929 27.48210256 79.16262622 27.40557575 90.74039173 C27.38026392 95.22727289 27.37819698 99.71416929 27.37347412 104.20111084 C27.3611306 112.66496207 27.32842811 121.12860219 27.28807616 129.59236121 C27.24308699 139.24194638 27.22130374 148.89154259 27.20129442 158.54120684 C27.15968588 178.36094791 27.08644394 198.18040027 27 218 C13.14 218 -0.72 218 -15 218 C-15.0093457 213.32779297 -15.01869141 208.65558594 -15.02832031 203.84179688 C-15.0621584 188.36719186 -15.11754669 172.89271862 -15.18390274 157.41822052 C-15.22359413 148.04036702 -15.25603666 138.66259623 -15.27099609 129.28466797 C-15.2840642 121.10421336 -15.31115929 112.92394151 -15.35461307 104.74358988 C-15.37711267 100.41815327 -15.39291766 96.0929411 -15.39188385 91.7674408 C-15.39113036 87.68300305 -15.40935286 83.59905923 -15.44116783 79.51474953 C-15.4495772 78.0282651 -15.451479 76.54172466 -15.44580269 75.05522728 C-15.3939348 59.36278925 -18.31721371 44.92871106 -27.1875 31.75 C-35.30025136 23.817532 -45.77977159 19.72317878 -57 19 C-57.639375 18.94714844 -58.27875 18.89429688 -58.9375 18.83984375 C-81.81077927 17.84346984 -100.61569788 29.99726608 -116.84765625 44.86328125 C-120.42577937 48.41542888 -120.13254211 50.70454974 -120.15821838 55.65640259 C-120.16315636 56.34823179 -120.16809434 57.04006099 -120.17318195 57.7528547 C-120.18859853 60.08214153 -120.19692878 62.4114007 -120.20532227 64.74072266 C-120.21489753 66.40602361 -120.22490739 68.07132212 -120.23532104 69.73661804 C-120.26241435 74.26733122 -120.28339991 78.79805487 -120.30332303 83.32880449 C-120.32515534 88.06007334 -120.35255748 92.79130977 -120.37937927 97.52255249 C-120.42934349 106.48624949 -120.47426846 115.44996445 -120.51740164 124.41369665 C-120.56674218 134.61671418 -120.62167209 144.81969919 -120.67708123 155.02268529 C-120.79095852 176.01509471 -120.89704707 197.00753396 -121 218 C-135.19 218 -149.38 218 -164 218 C-164 142.1 -164 66.2 -164 -12 C-133.75043428 -12 -133.75043428 -12 -129.26049805 -8.73510742 C-127.49983759 -6.3115138 -127.26689517 -4.19235683 -126.83203125 -1.23828125 C-126.66123047 -0.12001953 -126.49042969 0.99824219 -126.31445312 2.15039062 C-126.14880859 3.31763672 -125.98316406 4.48488281 -125.8125 5.6875 C-125.63525391 6.86634766 -125.45800781 8.04519531 -125.27539062 9.25976562 C-124.83918669 12.17172159 -124.41454346 15.08489493 -124 18 C-119.54218943 14.74160343 -115.29064457 11.46744485 -111.3125 7.625 C-81.4914424 -19.50577871 -32.87166249 -24.44303108 0 0 Z " fill="#000000" transform="translate(390,157)"/>
</svg>
