<?xml version="1.0" encoding="UTF-8"?>
<svg version="1.1" xmlns="http://www.w3.org/2000/svg" width="640" height="480">
<path d="M0 0 C9.63775245 -0.3610233 19.2844656 1.56839418 27.7734375 6.16015625 C27.95965057 14.097365 27.44276482 21.78599886 26.4609375 29.66015625 C26.34298828 30.73007813 26.22503906 31.8 26.10351562 32.90234375 C25.97783203 33.92585938 25.85214844 34.949375 25.72265625 36.00390625 C25.55769653 37.38352539 25.55769653 37.38352539 25.3894043 38.79101562 C24.69344116 41.46783937 23.96091339 42.50385701 21.7734375 44.16015625 C19.50390625 44.48828125 19.50390625 44.48828125 16.9609375 44.41015625 C16.12949219 44.3946875 15.29804688 44.37921875 14.44140625 44.36328125 C11.7734375 44.16015625 11.7734375 44.16015625 9.05859375 43.66015625 C-6.6221981 41.27354346 -21.19445849 42.72023476 -34.2265625 52.16015625 C-42.67186933 58.83651368 -47.58101369 67.64192069 -52.2265625 77.16015625 C-52.64883464 77.99654003 -53.07110678 78.83292381 -53.50617504 79.69465256 C-57.31252655 87.87192407 -57.94474495 94.89068719 -57.88598633 103.83300781 C-57.89446011 105.2633452 -57.90511356 106.69367104 -57.91775513 108.12397766 C-57.94566631 111.96834976 -57.94347218 115.81215945 -57.93546128 119.65660191 C-57.93231626 123.68852862 -57.95742856 127.72028236 -57.97941589 131.75213623 C-58.01672968 139.36974318 -58.02899634 146.98717167 -58.0320403 154.60486102 C-58.03674495 163.28462418 -58.06971316 171.96421009 -58.10493815 180.64389467 C-58.17670663 198.48267213 -58.20963312 216.32123665 -58.2265625 234.16015625 C-72.0865625 234.16015625 -85.9465625 234.16015625 -100.2265625 234.16015625 C-100.2265625 158.26015625 -100.2265625 82.36015625 -100.2265625 4.16015625 C-72.2265625 4.16015625 -72.2265625 4.16015625 -65.2265625 7.16015625 C-62.67361284 10.3748319 -62.75541825 14.23394351 -62.41015625 18.2265625 C-62.34876968 18.90186508 -62.28738312 19.57716766 -62.22413635 20.27293396 C-62.02981469 22.42224371 -61.84628876 24.57229003 -61.6640625 26.72265625 C-61.47670646 28.87640891 -61.28701488 31.02990207 -61.09327698 33.18309021 C-60.91844466 35.13407086 -60.75091038 37.0857014 -60.58374023 39.03735352 C-60.33233008 42.18681085 -60.33233008 42.18681085 -59.2265625 45.16015625 C-58.73349609 44.17789063 -58.73349609 44.17789063 -58.23046875 43.17578125 C-48.65405507 24.80152411 -35.08366289 8.69692837 -14.8515625 2.22265625 C-9.90387051 0.96558793 -5.07831143 0.36528205 0 0 Z " fill="#000000" transform="translate(375.2265625,149.83984375)"/>
</svg>
