<?xml version="1.0" encoding="UTF-8"?>
<svg version="1.1" xmlns="http://www.w3.org/2000/svg" width="640" height="480">
<path d="M0 0 C13.86 0 27.72 0 42 0 C42.01458252 4.64715088 42.02916504 9.29430176 42.04418945 14.08227539 C42.0946185 29.46906334 42.16108027 44.85575156 42.23571491 60.24244022 C42.28055907 69.56762113 42.31999957 78.89276481 42.34643555 88.21801758 C42.36950823 96.35192672 42.40300858 104.48571693 42.44870156 112.61953157 C42.47250957 116.92086699 42.49131928 121.22208553 42.49761391 125.52348518 C42.50372157 129.58404657 42.52392241 133.6443094 42.55427551 137.7047596 C42.56296578 139.18360306 42.56679738 140.66248569 42.56500816 142.14135361 C42.55126924 158.75848184 44.59521736 176.23720009 56.3125 189.0625 C67.74757292 199.23843006 81.80712338 199.77943589 96.30029297 199.19091797 C112.01425155 198.07965774 125.37514951 190.16707182 137 180 C137.92554688 179.195625 138.85109375 178.39125 139.8046875 177.5625 C144.49282387 173.76212238 144.49282387 173.76212238 148 169 C148.1065361 166.78313086 148.1467104 164.56299514 148.15821838 162.34359741 C148.16315636 161.65176821 148.16809434 160.95993901 148.17318195 160.2471453 C148.18859853 157.91785847 148.19692878 155.5885993 148.20532227 153.25927734 C148.21489753 151.59397639 148.22490739 149.92867788 148.23532104 148.26338196 C148.26241435 143.73266878 148.28339991 139.20194513 148.30332303 134.67119551 C148.32515534 129.93992666 148.35255748 125.20869023 148.37937927 120.47744751 C148.42934349 111.51375051 148.47426846 102.55003555 148.51740164 93.58630335 C148.56674218 83.38328582 148.62167209 73.18030081 148.67708123 62.97731471 C148.79095852 41.98490529 148.89704707 20.99246604 149 0 C162.86 0 176.72 0 191 0 C191 75.9 191 151.8 191 230 C180.77 230 170.54 230 160 230 C154.375 224.375 154.375 224.375 153.63671875 219.26171875 C153.47236328 218.19501953 153.30800781 217.12832031 153.13867188 216.02929688 C152.98978516 214.92650391 152.84089844 213.82371094 152.6875 212.6875 C152.51927734 211.56537109 152.35105469 210.44324219 152.17773438 209.28710938 C151.76663838 206.52689338 151.37479419 203.76533899 151 201 C148.79990856 200.76778169 148.79990856 200.76778169 147.109375 202.8359375 C146.33078125 203.67382812 145.5521875 204.51171875 144.75 205.375 C127.45528008 222.91749528 104.53232766 233.86936428 79.73022461 234.24145508 C60.38583301 234.30341661 43.61722544 231.19681444 28 219 C27.31292969 218.48953125 26.62585938 217.9790625 25.91796875 217.453125 C10.0514745 204.81000138 2.54947504 183.15851445 0.20347786 163.61044312 C-0.27063492 157.52799052 -0.1287399 151.41003866 -0.11352539 145.3125 C-0.113243 143.72513328 -0.11340227 142.13776643 -0.1139679 140.55039978 C-0.11425383 136.25967649 -0.10839003 131.96898138 -0.10139394 127.67826462 C-0.09512649 123.1872853 -0.09455392 118.69630528 -0.09336853 114.20532227 C-0.0902652 105.70929193 -0.08206529 97.21327452 -0.07201904 88.71724987 C-0.06082688 79.0413131 -0.05533964 69.36537569 -0.05032361 59.68943405 C-0.03988182 39.79294723 -0.02154877 19.89647811 0 0 Z " fill="#000000" transform="translate(229,148)"/>
</svg>
