<?xml version="1.0" encoding="UTF-8" standalone="no"?>
<svg
   viewBox="0 0 500 500"
   version="1.1"
   id="svg213"
   sodipodi:docname="signUp.svg"
   inkscape:version="1.3.2 (091e20ef0f, 2023-11-25, custom)"
   xml:space="preserve"
   xmlns:inkscape="http://www.inkscape.org/namespaces/inkscape"
   xmlns:sodipodi="http://sodipodi.sourceforge.net/DTD/sodipodi-0.dtd"
   xmlns="http://www.w3.org/2000/svg"
   xmlns:svg="http://www.w3.org/2000/svg"><defs
     id="defs213">
	
	

	
	
	
	
		
	
		
	
		
	
		
	
		
</defs><sodipodi:namedview
     id="namedview213"
     pagecolor="#ffffff"
     bordercolor="#000000"
     borderopacity="0.25"
     inkscape:showpageshadow="2"
     inkscape:pageopacity="0.0"
     inkscape:pagecheckerboard="0"
     inkscape:deskcolor="#d1d1d1"
     inkscape:zoom="0.68478402"
     inkscape:cx="286.95179"
     inkscape:cy="216.12654"
     inkscape:window-width="1227"
     inkscape:window-height="700"
     inkscape:window-x="0"
     inkscape:window-y="0"
     inkscape:window-maximized="1"
     inkscape:current-layer="svg213" /><rect
     x="-488.375"
     y="-24.165457"
     style="fill:#ffffff;stroke-width:0.400356"
     width="163.15828"
     height="177.60812"
     id="rect1-3" /><g
     id="g218"><g
       id="freepik--background-complete--inject-9"><rect
         x="62.77"
         y="376.37"
         width="35.16"
         height="11.19"
         style="fill:#ebebeb"
         id="rect1" /><rect
         x="176.31"
         y="102.95"
         width="35.16"
         height="11.19"
         style="fill:#ebebeb"
         id="rect2" /><path
         d="M78.32,401.67l-17.46.3-8.83.12-8.87,0h-.45v-.46l0-11.19V390h.5l17.58.07,8.79.09,8.79.11h.24v.23Zm0,0-.24-11.19.24.24-8.79.11-8.79.09L43.16,391l.5-.5,0,11.19-.46-.45,8.71,0,8.75.12Z"
         style="fill:#ebebeb"
         id="path2" /><path
         d="M418.89,296.07l-17.46.29-8.83.12-8.87,0h-.46v-.45l0-11.19v-.51h.5l17.58.06,8.79.09,8.79.11h.24v.24Zm0,0-.24-11.19.24.23-8.79.11-8.79.09-17.58.06.5-.49-.05,11.19-.45-.46,8.71,0,8.75.12Z"
         style="fill:#ebebeb"
         id="path3" /><path
         d="M399.27,310.17l-17.45.3-8.84.12-8.86,0h-.46v-.46l0-11.18v-.51h.51l17.58.06,8.78.09,8.79.11h.25V299Zm0,0L399,299l.23.23-8.79.11-8.78.09-17.58.06.5-.49-.05,11.18-.45-.45,8.71,0,8.74.12Z"
         style="fill:#ebebeb"
         id="path4" /><rect
         x="344.58"
         y="284.88"
         width="35.16"
         height="11.19"
         style="fill:#ebebeb"
         id="rect4" /><rect
         x="421.68"
         y="390.48"
         width="35.16"
         height="11.19"
         style="fill:#ebebeb"
         id="rect5" /><rect
         x="402.07"
         y="44.93"
         width="35.16"
         height="11.19"
         style="fill:#ebebeb"
         id="rect6" /><path
         d="M456.84,70.23l-17.46.3-8.83.12-8.87,0h-.45v-.46L421.18,59v-.5h.5l17.58.07,8.79.09,8.79.11h.24V59Zm0,0L456.6,59l.24.24-8.79.11-8.79.08-17.58.07.5-.5,0,11.19-.46-.45,8.71,0,8.75.12Z"
         style="fill:#ebebeb"
         id="path6" /><path
         d="M97.93,56.12l-17.46.3-8.83.12-8.87,0h-.45v-.46l0-11.19v-.5h.5l17.58.07,8.79.09,8.79.11h.24v.23Zm0,0-.24-11.19.24.24-8.79.11-8.79.08-17.58.07.5-.5,0,11.19-.46-.45,8.71,0,8.75.12Z"
         style="fill:#ebebeb"
         id="path7" /><path
         d="M57.37,47.81V225.47H172.85V47.81Zm111.22,173.4h-107V52.07h107Z"
         style="fill:#ebebeb"
         id="path8" /><rect
         x="61.63"
         y="52.07"
         width="106.95"
         height="169.14"
         style="fill:#fff"
         id="rect8" /><rect
         x="61.63"
         y="134.51"
         width="106.95"
         height="4.26"
         transform="translate(230.21 273.28) rotate(180)"
         style="fill:#ebebeb"
         id="rect9" /><rect
         x="49.52"
         y="225.47"
         width="131.16"
         height="12.23"
         transform="translate(230.21 463.17) rotate(180)"
         style="fill:#dbdbdb"
         id="rect10" /><path
         d="M61.63,52.07h107V161.5h-107Zm103,3.94H65.58V157.55h99.06Z"
         style="fill:#dbdbdb"
         id="path10" /><rect
         x="132.32"
         y="52.07"
         width="2.13"
         height="105.48"
         style="fill:#dbdbdb"
         id="rect11" /><rect
         x="95.76"
         y="52.07"
         width="2.13"
         height="105.48"
         style="fill:#dbdbdb"
         id="rect12" /><path
         d="M327.16,47.81V225.47H442.63V47.81Zm111.21,173.4H331.42V52.07h107Z"
         style="fill:#ebebeb"
         id="path12" /><rect
         x="331.42"
         y="52.07"
         width="106.95"
         height="169.14"
         style="fill:#fff"
         id="rect13" /><rect
         x="331.42"
         y="134.51"
         width="106.95"
         height="4.26"
         transform="translate(769.79 273.28) rotate(180)"
         style="fill:#ebebeb"
         id="rect14" /><rect
         x="319.31"
         y="225.47"
         width="131.16"
         height="12.23"
         transform="translate(769.79 463.17) rotate(180)"
         style="fill:#dbdbdb"
         id="rect15" /><path
         d="M331.42,52.07h107V161.5H331.42Zm103,3.94H335.36V157.55h99.06Z"
         style="fill:#dbdbdb"
         id="path15" /><rect
         x="402.11"
         y="52.07"
         width="2.13"
         height="105.48"
         style="fill:#dbdbdb"
         id="rect16" /><rect
         x="365.55"
         y="52.07"
         width="2.13"
         height="105.48"
         style="fill:#dbdbdb"
         id="rect17" /><rect
         x="40.29"
         y="278.36"
         width="146.12"
         height="8.92"
         style="fill:#ebebeb"
         id="rect18" /><rect
         x="53.32"
         y="287.28"
         width="120.06"
         height="24.61"
         style="fill:#ebebeb"
         id="rect19" /><polygon
         points="173.38 292.14 53.32 294.53 53.32 287.28 173.38 287.28 173.38 292.14"
         style="fill:#c7c7c7"
         id="polygon19" /><path
         d="M155.29,307.24H71.41v-15.3h83.88Zm-82.88-1h81.88v-13.3H72.41Z"
         style="fill:#dbdbdb"
         id="path19" /><rect
         x="99.69"
         y="297.53"
         width="27.33"
         height="4.13"
         style="fill:#dbdbdb"
         id="rect20" /><polygon
         points="52.35 453.45 48.37 453.45 59.94 311.9 70.08 311.9 52.35 453.45"
         style="fill:#ebebeb"
         id="polygon20" /><polygon
         points="70.08 311.9 68.89 321.37 59.17 321.37 59.94 311.9 70.08 311.9"
         style="fill:#c7c7c7"
         id="polygon21" /><polygon
         points="174.35 453.45 178.33 453.45 166.76 311.9 156.62 311.9 174.35 453.45"
         style="fill:#ebebeb"
         id="polygon22" /><polygon
         points="156.62 311.9 157.81 321.37 167.53 321.37 166.76 311.9 156.62 311.9"
         style="fill:#c7c7c7"
         id="polygon23" /></g><g
       id="freepik--Floor--inject-9"><polygon
         points="41.45 453.45 93.59 453.2 145.73 453.12 250 452.95 354.27 453.12 406.41 453.2 458.55 453.45 406.41 453.69 354.27 453.78 250 453.95 145.73 453.78 93.59 453.69 41.45 453.45"
         style="fill:#263238"
         id="polygon24" /></g><g
       id="g216"
       transform="translate(-393.24176,5.3140778)"><path
         d="m 724.59069,65.900232 h -169 a 17.26,17.26 0 0 0 -17.15,17.4 V 431.30023 a 17.27,17.27 0 0 0 17.11,17.42 h 169 a 17.29,17.29 0 0 0 17.17,-17.42 V 83.300232 a 17.28,17.28 0 0 0 -17.13,-17.4 z m 6.43,354.669998 c 0,9.16 -6.86,16.57 -15.31,16.57 h -151.24 c -8.49,0 -15.34,-7.41 -15.34,-16.57 V 96.510232 c 0,-18.659999 6.85,-19.57 15.34,-19.57 h 30.29 c 1.76,0 3.2,2 3.2,4.48 v 1.07 c 0,5.81 3.18,5.81 7.12,5.81 h 70 c 4,0 7.09,0 7.09,-5.83 v -1.05 c 0,-2.48 1.42,-4.48 3.22,-4.48 h 30.3 c 8.45,0 15.31,2.48 15.31,19.57 z"
         style="fill:#263238"
         id="path24" /><path
         d="m 649.63069,81.060233 h -19.11 a 1.18,1.18 0 0 1 -1.18,-1.18 v 0 a 1.18,1.18 0 0 1 1.18,-1.180001 h 19.11 a 1.18,1.18 0 0 1 1.18,1.180001 v 0 a 1.18,1.18 0 0 1 -1.18,1.18 z"
         style="fill:#ffffff"
         id="path25" /><path
         d="M 731.08069,96.510232 V 420.57023 c 0,9.16 -6.86,16.57 -15.32,16.57 h -151.29 c -8.48,0 -15.34,-7.41 -15.34,-16.57 V 96.510232 c 0,-18.659999 6.86,-19.57 15.34,-19.57 h 30.29 c 1.76,0 3.2,2 3.2,4.48 v 1.07 c 0,5.81 3.18,5.81 7.12,5.81 h 70 c 3.94,0 7.09,0 7.09,-5.83 v -1.05 c 0,-2.48 1.42,-4.48 3.21,-4.48 h 30.3 c 8.49,0 15.4,2.48 15.4,19.57 z"
         style="fill:#ffffff"
         id="path26" /><polygon
         points="172.08,117.81 177.46,112.77 178.29,113.66 173.87,117.81 178.29,121.95 177.46,122.84 "
         style="fill:#c7c7c7"
         id="polygon26"
         transform="translate(390.08069,-4.6997675)" /><path
         d="m 716.94069,109.97023 a 1.06,1.06 0 1 1 -1.06,-1.06 1.05,1.05 0 0 1 1.06,1.06 z"
         style="fill:#c7c7c7"
         id="path27" /><path
         d="m 716.94069,113.73023 a 1.06,1.06 0 1 1 -1.06,-1.06 1.05,1.05 0 0 1 1.06,1.06 z"
         style="fill:#c7c7c7"
         id="path28" /><path
         d="m 716.94069,117.49023 a 1.06,1.06 0 1 1 -1.06,-1.06 1.05,1.05 0 0 1 1.06,1.06 z"
         style="fill:#c7c7c7"
         id="path29" /><path
         d="m 625.77069,116.30023 a 0.37,0.37 0 0 1 0.51,0 2.2,2.2 0 0 0 1.34,0.54 1.47,1.47 0 0 0 0.87,-0.26 0.62,0.62 0 0 0 0.3,-0.5 0.4,0.4 0 0 0 -0.06,-0.22 0.69,0.69 0 0 0 -0.21,-0.21 2.54,2.54 0 0 0 -1,-0.33 v 0 a 4.12,4.12 0 0 1 -0.9,-0.28 1.44,1.44 0 0 1 -0.65,-0.54 1.06,1.06 0 0 1 -0.16,-0.58 1.3,1.3 0 0 1 0.56,-1 2.07,2.07 0 0 1 1.21,-0.37 2.78,2.78 0 0 1 1.53,0.56 0.36055513,0.36055513 0 1 1 -0.4,0.6 2,2 0 0 0 -1.13,-0.45 1.34,1.34 0 0 0 -0.78,0.24 0.57,0.57 0 0 0 -0.27,0.44 0.31,0.31 0 0 0 0.05,0.2 0.66,0.66 0 0 0 0.19,0.18 2.35,2.35 0 0 0 0.87,0.31 v 0 a 4.17,4.17 0 0 1 1,0.29 1.67,1.67 0 0 1 0.7,0.58 1.11,1.11 0 0 1 0.17,0.6 1.37,1.37 0 0 1 -0.6,1.09 2.19,2.19 0 0 1 -1.29,0.39 3,3 0 0 1 -1.8,-0.7 0.37,0.37 0 0 1 -0.05,-0.58 z"
         style="fill:#c7c7c7"
         id="path30" /><path
         d="m 630.64069,112.97023 a 0.38,0.38 0 0 1 0.38,-0.38 0.4,0.4 0 0 1 0.4,0.38 v 4.14 a 0.4,0.4 0 0 1 -0.4,0.38 0.38,0.38 0 0 1 -0.38,-0.38 z"
         style="fill:#c7c7c7"
         id="path31" /><path
         d="m 632.51069,114.98023 a 2.55,2.55 0 0 1 2.58,-2.53 2.62,2.62 0 0 1 1.6,0.54 0.4,0.4 0 0 1 0.07,0.57 0.4,0.4 0 0 1 -0.56,0.07 1.81,1.81 0 0 0 -2.37,0.13 1.65,1.65 0 0 0 0,2.42 1.76,1.76 0 0 0 1.26,0.51 1.94,1.94 0 0 0 1,-0.26 v -1 h -1 a 0.4,0.4 0 0 1 -0.4,-0.4 0.39,0.39 0 0 1 0.4,-0.39 h 1.39 a 0.39,0.39 0 0 1 0.41,0.39 v 1.55 c 0,0 0,0.07 0,0.12 v 0 0 a 0.34,0.34 0 0 1 -0.13,0.17 2.59,2.59 0 0 1 -1.59,0.54 2.54,2.54 0 0 1 -2.66,-2.43 z"
         style="fill:#c7c7c7"
         id="path32" /><path
         d="m 639.19069,117.11023 a 0.38,0.38 0 0 1 -0.76,0 v -4.07 0 a 0.37,0.37 0 0 1 0.15,-0.32 0.39,0.39 0 0 1 0.54,0.08 l 2.26,3.13 v -2.88 a 0.38,0.38 0 0 1 0.76,0 v 4.07 a 0.38,0.38 0 0 1 -0.38,0.38 0.36,0.36 0 0 1 -0.29,-0.14 v 0 l -2.24,-3.11 z"
         style="fill:#c7c7c7"
         id="path33" /><path
         d="m 647.95069,117.49023 a 2,2 0 0 1 -2,-2 v -2.5 a 0.37,0.37 0 0 1 0.38,-0.38 0.39,0.39 0 0 1 0.39,0.38 v 2.5 a 1.25,1.25 0 0 0 2.5,0 v -2.5 a 0.38,0.38 0 0 1 0.39,-0.38 0.37,0.37 0 0 1 0.38,0.38 v 2.5 a 2,2 0 0 1 -2.04,2 z"
         style="fill:#c7c7c7"
         id="path34" /><path
         d="m 653.25069,115.59023 h -0.86 v 1.52 a 0.39,0.39 0 0 1 -0.77,0 v -4.14 a 0.38,0.38 0 0 1 0.38,-0.38 h 1.25 a 1.5,1.5 0 1 1 0,3 z m -0.86,-0.78 h 0.86 a 0.72,0.72 0 1 0 0,-1.44 h -0.86 z"
         style="fill:#c7c7c7"
         id="path35" /><path
         d="m 589.53069,84.220233 -0.29,0.289999 -0.17,0.16 a 4,4 0 0 0 -5.64,0 l -0.16,-0.169999 -0.29,-0.290001 v 0 0 l 0.37,-0.329999 a 5.16,5.16 0 0 1 0.86,-0.540001 4.14,4.14 0 0 1 1.14,-0.38 c 0.18,0 0.37,0 0.56,-0.08 h 0.5 0.39 a 4.77,4.77 0 0 1 1,0.25 4.94,4.94 0 0 1 0.7,0.329999 4.48,4.48 0 0 1 0.67,0.47 l 0.31,0.28 z"
         style="fill:#c7c7c7"
         id="path36" /><path
         d="m 584.36069,85.590233 -0.47,-0.46 a 3.35,3.35 0 0 1 4.72,0 l -0.47,0.46 a 2.68,2.68 0 0 0 -3.78,0 z"
         style="fill:#c7c7c7"
         id="path37" /><path
         d="m 587.68069,86.060233 -0.46,0.459999 a 1.35,1.35 0 0 0 -1.94,0 c -0.15,-0.16 -0.31,-0.31 -0.46,-0.459999 a 2,2 0 0 1 2.86,0 z"
         style="fill:#c7c7c7"
         id="path38" /><path
         d="m 586.67069,86.930232 a 0.42,0.42 0 0 1 -0.42,0.420001 0.41,0.41 0 0 1 -0.41,-0.420001 0.41,0.41 0 0 1 0.41,-0.41 0.41,0.41 0 0 1 0.42,0.41 z"
         style="fill:#c7c7c7"
         id="path39" /><path
         d="m 560.99069,85.100233 a 1.21,1.21 0 1 1 1.2,1.209999 1.2,1.2 0 0 1 -1.2,-1.209999 z"
         style="fill:#c7c7c7"
         id="path40" /><path
         d="m 564.78069,85.100233 a 1.21,1.21 0 1 1 1.21,1.199999 1.21,1.21 0 0 1 -1.21,-1.199999 z"
         style="fill:#c7c7c7"
         id="path41" /><path
         d="m 568.58069,85.100233 a 1.21,1.21 0 1 1 1.21,1.199999 1.21,1.21 0 0 1 -1.21,-1.199999 z"
         style="fill:#c7c7c7"
         id="path42" /><path
         d="m 572.38069,85.100233 a 1.21,1.21 0 1 1 1.2,1.199999 1.2,1.2 0 0 1 -1.2,-1.199999 z"
         style="fill:#c7c7c7"
         id="path43" /><path
         d="m 576.18069,85.100233 a 1.21,1.21 0 1 1 1.2,1.199999 1.2,1.2 0 0 1 -1.2,-1.199999 z"
         style="fill:#c7c7c7"
         id="path44" /><path
         d="m 717.39069,87.740232 h -9.83 v -4.56 h 9.83 z m -9.31,-0.51 h 8.8 v -3.539999 h -8.8 z"
         style="fill:#c7c7c7"
         id="path45" /><rect
         x="708.38068"
         y="83.960236"
         width="6.3299999"
         height="3"
         style="fill:#c7c7c7"
         id="rect45" /><rect
         x="717.39069"
         y="84.240234"
         width="0.87"
         height="2.4300001"
         style="fill:#c7c7c7"
         id="rect46" /><polygon
         points="175.06,428.41 175.06,424.33 174.18,424.33 178.2,420.18 182.22,424.33 181.33,424.33 181.33,428.41 179.67,428.41 179.67,426.33 176.73,426.33 176.73,428.41 "
         style="fill:#ebebeb"
         id="polygon46"
         transform="translate(390.08069,-4.6997675)" /><rect
         x="706.5907"
         y="415.48022"
         width="9.6899996"
         height="1.38"
         style="fill:#ebebeb"
         id="rect47" /><rect
         x="706.5907"
         y="418.90024"
         width="9.6899996"
         height="1.39"
         style="fill:#ebebeb"
         id="rect48" /><rect
         x="706.5907"
         y="422.33023"
         width="9.6899996"
         height="1.39"
         style="fill:#ebebeb"
         id="rect49" /><polygon
         points="250.28,427.38 247.53,424.44 248.01,423.98 250.28,426.4 252.55,423.98 253.04,424.44 "
         style="fill:#ebebeb"
         id="polygon49"
         transform="translate(390.08069,-4.6997675)" /><path
         d="m 640.36069,425.72023 a 5,5 0 1 1 5,-5 5,5 0 0 1 -5,5 z m 0,-9.35 a 4.35,4.35 0 1 0 4.35,4.34 4.34,4.34 0 0 0 -4.35,-4.34 z"
         style="fill:#ebebeb"
         id="path49" /><path
         d="m 582.57069,208.59023 a 1.94,1.94 0 0 1 -1.94,-1.94 v -2.35 a 0.38,0.38 0 0 1 0.75,0 v 2.39 a 1.2,1.2 0 0 0 2.39,0 v -2.39 a 0.37,0.37 0 0 1 0.38,-0.37 0.36,0.36 0 0 1 0.36,0.37 v 2.39 a 1.94,1.94 0 0 1 -1.94,1.9 z"
         style="fill:#263238"
         id="path50" /><path
         d="m 585.86069,207.63023 a 0.34,0.34 0 0 1 0.5,-0.05 1.28,1.28 0 0 0 0.74,0.29 0.89,0.89 0 0 0 0.46,-0.13 c 0.09,-0.08 0.12,-0.14 0.12,-0.2 a 0.11,0.11 0 0 0 0,-0.06 c 0,0 0,-0.05 -0.09,-0.09 a 1.67,1.67 0 0 0 -0.54,-0.18 v 0 a 2.79,2.79 0 0 1 -0.58,-0.18 1.15,1.15 0 0 1 -0.46,-0.39 0.76,0.76 0 0 1 -0.12,-0.42 1,1 0 0 1 0.4,-0.74 1.45,1.45 0 0 1 0.83,-0.25 1.68,1.68 0 0 1 1,0.37 0.38,0.38 0 0 1 0.11,0.5 0.35,0.35 0 0 1 -0.5,0.09 1.14,1.14 0 0 0 -0.61,-0.25 0.69,0.69 0 0 0 -0.41,0.13 0.21,0.21 0 0 0 -0.1,0.15 0.07,0.07 0 0 0 0,0.05 l 0.07,0.07 a 1.38,1.38 0 0 0 0.49,0.16 v 0 a 2.49,2.49 0 0 1 0.62,0.19 1.08,1.08 0 0 1 0.48,0.4 0.86,0.86 0 0 1 0.12,0.44 1,1 0 0 1 -0.42,0.78 1.5,1.5 0 0 1 -0.87,0.27 2,2 0 0 1 -1.2,-0.46 0.37,0.37 0 0 1 -0.04,-0.49 z"
         style="fill:#263238"
         id="path51" /><path
         d="m 589.08069,206.91023 a 1.65,1.65 0 0 1 1.63,-1.68 1.6,1.6 0 0 1 1.62,1.56 v 0 c 0,0 0,0 0,0.06 a 0.31,0.31 0 0 1 -0.34,0.27 h -2.14 a 0.88,0.88 0 0 0 0.23,0.45 1,1 0 0 0 0.64,0.3 1.08,1.08 0 0 0 0.7,-0.17 0.38,0.38 0 0 1 0.51,0 0.32,0.32 0 0 1 0,0.44 1.72,1.72 0 0 1 -1.21,0.44 1.66,1.66 0 0 1 -1.64,-1.67 z m 0.73,-0.33 h 1.9 a 1.1,1.1 0 0 0 -1,-0.71 0.93,0.93 0 0 0 -0.89,0.71 z"
         style="fill:#263238"
         id="path52" /><path
         d="m 595.34069,205.59023 a 0.36,0.36 0 0 1 -0.36,0.35 0.62,0.62 0 0 0 -0.4,0.13 1,1 0 0 0 -0.31,0.32 2.38,2.38 0 0 0 -0.28,0.57 v 1.27 a 0.36,0.36 0 0 1 -0.37,0.36 0.36,0.36 0 0 1 -0.35,-0.36 v -2.64 a 0.35,0.35 0 0 1 0.35,-0.35 0.35,0.35 0 0 1 0.37,0.35 v 0.05 a 0.92,0.92 0 0 1 0.14,-0.14 1.45,1.45 0 0 1 0.85,-0.26 0.35,0.35 0 0 1 0.36,0.35 z"
         style="fill:#263238"
         id="path53" /><path
         d="m 599.01069,206.63023 v 1.6 a 0.35,0.35 0 0 1 -0.34,0.36 0.36,0.36 0 0 1 -0.36,-0.36 v -1.6 a 0.69,0.69 0 0 0 -0.7,-0.68 0.67,0.67 0 0 0 -0.67,0.68 v 1.6 a 0.2,0.2 0 0 1 0,0.07 0.38,0.38 0 0 1 -0.36,0.29 0.35,0.35 0 0 1 -0.35,-0.36 v -2.64 a 0.35,0.35 0 0 1 0.35,-0.36 0.36,0.36 0 0 1 0.33,0.21 1.32,1.32 0 0 1 0.71,-0.21 1.4,1.4 0 0 1 1.39,1.4 z"
         style="fill:#263238"
         id="path54" /><path
         d="m 603.17069,206.92023 v 1.31 a 0.35174565,0.35174565 0 0 1 -0.7,0.07 1.56,1.56 0 0 1 -0.9,0.29 1.58,1.58 0 0 1 -1.14,-0.49 1.73,1.73 0 0 1 -0.46,-1.18 1.67,1.67 0 0 1 0.46,-1.18 1.52,1.52 0 0 1 2,-0.21 0.35174565,0.35174565 0 0 1 0.7,0.07 z m -0.71,0 a 1,1 0 0 0 -0.26,-0.69 0.84,0.84 0 0 0 -0.63,-0.28 0.8,0.8 0 0 0 -0.62,0.28 1,1 0 0 0 -0.26,0.69 1,1 0 0 0 0.26,0.69 0.82,0.82 0 0 0 0.62,0.26 0.86,0.86 0 0 0 0.63,-0.26 1,1 0 0 0 0.26,-0.69 z"
         style="fill:#263238"
         id="path55" /><path
         d="m 607.29069,206.62023 v 1.61 a 0.36,0.36 0 0 1 -0.35,0.36 0.37,0.37 0 0 1 -0.37,-0.36 v -1.61 a 0.68,0.68 0 0 0 -0.69,-0.67 0.69,0.69 0 0 0 -0.68,0.69 v 1.66 c 0,0 0,0 0,0 v 0 a 0.39,0.39 0 0 1 -0.34,0.22 h -0.07 a 0.36,0.36 0 0 1 -0.28,-0.35 v -1.59 0 -1 a 0.36,0.36 0 0 1 0.35,-0.37 0.35,0.35 0 0 1 0.32,0.2 1.53,1.53 0 0 1 0.72,-0.2 1.4,1.4 0 0 1 1.06,0.47 1.37,1.37 0 0 1 1,-0.47 1.41,1.41 0 0 1 1.4,1.41 v 1.59 a 0.36,0.36 0 0 1 -0.36,0.36 0.36,0.36 0 0 1 -0.36,-0.36 v -1.59 a 0.69,0.69 0 0 0 -0.68,-0.69 0.7,0.7 0 0 0 -0.67,0.69 z"
         style="fill:#263238"
         id="path56" /><path
         d="m 610.63069,206.91023 a 1.67,1.67 0 0 1 1.64,-1.68 1.6,1.6 0 0 1 1.62,1.56 v 0 c 0,0 0,0 0,0.06 a 0.31,0.31 0 0 1 -0.34,0.27 h -2.14 a 0.88,0.88 0 0 0 0.23,0.45 1,1 0 0 0 0.64,0.3 1.1,1.1 0 0 0 0.7,-0.17 0.38,0.38 0 0 1 0.51,0 0.32,0.32 0 0 1 0,0.44 1.72,1.72 0 0 1 -1.21,0.44 1.68,1.68 0 0 1 -1.65,-1.67 z m 0.74,-0.33 h 1.9 a 1.1,1.1 0 0 0 -1,-0.71 0.93,0.93 0 0 0 -0.9,0.71 z"
         style="fill:#263238"
         id="path57" /><rect
         x="579.50067"
         y="213.71024"
         width="121.16"
         height="14.39"
         style="fill:#ebebeb"
         id="rect57" /><path
         d="m 580.63069,242.71023 v -4 a 0.36,0.36 0 0 1 0.37,-0.37 h 2.19 a 0.37,0.37 0 0 1 0.37,0.37 0.38,0.38 0 0 1 -0.37,0.38 h -1.82 v 1.22 h 1.57 a 0.38,0.38 0 0 1 0.37,0.37 0.38,0.38 0 0 1 -0.37,0.38 h -1.57 v 1.24 h 1.82 a 0.38,0.38 0 0 1 0,0.75 h -2.19 a 0.37,0.37 0 0 1 -0.37,-0.34 z"
         style="fill:#263238"
         id="path58" /><path
         d="m 587.34069,241.11023 v 1.61 a 0.36,0.36 0 0 1 -0.35,0.36 0.37,0.37 0 0 1 -0.37,-0.36 v -1.61 a 0.68,0.68 0 0 0 -0.69,-0.67 0.69,0.69 0 0 0 -0.68,0.69 v 1.66 c 0,0 0,0 0,0 v 0 a 0.39,0.39 0 0 1 -0.34,0.22 h -0.07 a 0.36,0.36 0 0 1 -0.29,-0.35 v -1.59 0 -1 a 0.37,0.37 0 0 1 0.36,-0.37 0.35,0.35 0 0 1 0.32,0.2 1.53,1.53 0 0 1 0.72,-0.2 1.42,1.42 0 0 1 1.06,0.47 1.37,1.37 0 0 1 1.05,-0.47 1.41,1.41 0 0 1 1.4,1.41 v 1.59 a 0.36,0.36 0 0 1 -0.72,0 v -1.59 a 0.69,0.69 0 0 0 -0.68,-0.69 0.7,0.7 0 0 0 -0.72,0.69 z"
         style="fill:#263238"
         id="path59" /><path
         d="m 593.76069,241.41023 v 1.31 a 0.36,0.36 0 0 1 -0.36,0.36 0.37,0.37 0 0 1 -0.35,-0.29 1.5,1.5 0 0 1 -0.89,0.29 1.56,1.56 0 0 1 -1.14,-0.49 1.73,1.73 0 0 1 -0.46,-1.18 1.69,1.69 0 0 1 0.46,-1.18 1.54,1.54 0 0 1 1.14,-0.51 1.51,1.51 0 0 1 0.89,0.3 0.37,0.37 0 0 1 0.35,-0.3 0.36,0.36 0 0 1 0.36,0.37 z m -0.71,0 a 0.94,0.94 0 0 0 -0.27,-0.69 0.82,0.82 0 0 0 -0.62,-0.28 0.8,0.8 0 0 0 -0.62,0.28 0.94,0.94 0 0 0 -0.26,0.69 1,1 0 0 0 0.26,0.69 0.82,0.82 0 0 0 0.62,0.26 0.84,0.84 0 0 0 0.62,-0.26 1,1 0 0 0 0.3,-0.69 z"
         style="fill:#263238"
         id="path60" /><path
         d="m 595.81069,238.88023 a 0.37,0.37 0 1 1 -0.73,0 v -0.14 a 0.37,0.37 0 0 1 0.73,0 z m 0,1.22 v 2.62 a 0.37,0.37 0 0 1 -0.73,0 v -2.62 a 0.37,0.37 0 1 1 0.73,0 z"
         style="fill:#263238"
         id="path61" /><path
         d="m 597.24069,238.38023 a 0.38,0.38 0 0 1 0.37,0.37 v 4 a 0.38,0.38 0 0 1 -0.37,0.37 0.37,0.37 0 0 1 -0.37,-0.37 v -4 a 0.37,0.37 0 0 1 0.37,-0.37 z"
         style="fill:#263238"
         id="path62" /><rect
         x="579.50067"
         y="248.20023"
         width="121.16"
         height="14.39"
         style="fill:#ebebeb"
         id="rect62" /><path
         d="m 582.20069,275.74023 h -0.83 v 1.46 a 0.37,0.37 0 0 1 -0.37,0.37 0.38,0.38 0 0 1 -0.37,-0.37 v -4 a 0.37,0.37 0 0 1 0.37,-0.37 h 1.2 a 1.44,1.44 0 1 1 0,2.87 z m -0.83,-0.74 h 0.83 a 0.69,0.69 0 1 0 0,-1.38 h -0.83 z"
         style="fill:#263238"
         id="path63" /><path
         d="m 587.31069,275.90023 v 1.32 a 0.36,0.36 0 0 1 -0.36,0.35 0.37,0.37 0 0 1 -0.35,-0.29 1.53,1.53 0 0 1 -0.89,0.29 1.56,1.56 0 0 1 -1.14,-0.49 1.71,1.71 0 0 1 -0.46,-1.18 1.69,1.69 0 0 1 0.46,-1.18 1.5,1.5 0 0 1 2,-0.21 0.37,0.37 0 0 1 0.35,-0.3 0.37,0.37 0 0 1 0.36,0.37 z m -0.71,0 a 1,1 0 0 0 -0.27,-0.69 0.84,0.84 0 0 0 -1.25,0 1,1 0 0 0 -0.25,0.69 1,1 0 0 0 0.25,0.69 0.88,0.88 0 0 0 1.25,0 1,1 0 0 0 0.27,-0.69 z"
         style="fill:#263238"
         id="path64" /><path
         d="m 588.46069,276.61023 a 0.34,0.34 0 0 1 0.5,-0.05 1.28,1.28 0 0 0 0.74,0.29 0.89,0.89 0 0 0 0.46,-0.13 c 0.09,-0.08 0.12,-0.14 0.12,-0.2 a 0.11,0.11 0 0 0 0,-0.06 0.18,0.18 0 0 0 -0.09,-0.08 1.31,1.31 0 0 0 -0.53,-0.19 v 0 a 2.46,2.46 0 0 1 -0.58,-0.18 1,1 0 0 1 -0.47,-0.39 0.85,0.85 0 0 1 -0.11,-0.42 1,1 0 0 1 0.39,-0.74 1.48,1.48 0 0 1 0.83,-0.25 1.74,1.74 0 0 1 1,0.37 0.37,0.37 0 0 1 0.1,0.5 0.34,0.34 0 0 1 -0.49,0.09 1.18,1.18 0 0 0 -0.62,-0.24 0.63,0.63 0 0 0 -0.4,0.12 c -0.09,0.06 -0.11,0.12 -0.11,0.15 a 0.07,0.07 0 0 0 0,0.05 0.19,0.19 0 0 0 0.08,0.07 1.31,1.31 0 0 0 0.49,0.16 v 0 a 2.49,2.49 0 0 1 0.62,0.19 1,1 0 0 1 0.48,0.4 0.87,0.87 0 0 1 0.13,0.44 1,1 0 0 1 -0.42,0.78 1.55,1.55 0 0 1 -0.88,0.27 2,2 0 0 1 -1.19,-0.46 0.36,0.36 0 0 1 -0.05,-0.49 z"
         style="fill:#263238"
         id="path65" /><path
         d="m 591.70069,276.61023 a 0.34,0.34 0 0 1 0.5,-0.05 1.25,1.25 0 0 0 0.74,0.29 0.89,0.89 0 0 0 0.46,-0.13 c 0.09,-0.08 0.12,-0.14 0.12,-0.2 a 0.11,0.11 0 0 0 0,-0.06 0.24,0.24 0 0 0 -0.09,-0.08 1.37,1.37 0 0 0 -0.54,-0.19 v 0 a 2.71,2.71 0 0 1 -0.59,-0.18 1.07,1.07 0 0 1 -0.46,-0.39 0.76,0.76 0 0 1 -0.12,-0.42 1,1 0 0 1 0.4,-0.74 1.45,1.45 0 0 1 0.83,-0.25 1.68,1.68 0 0 1 1,0.37 0.38,0.38 0 0 1 0.11,0.5 0.35,0.35 0 0 1 -0.5,0.09 1.12,1.12 0 0 0 -0.61,-0.24 0.69,0.69 0 0 0 -0.41,0.12 0.21,0.21 0 0 0 -0.1,0.15 0.07,0.07 0 0 0 0,0.05 l 0.07,0.07 a 1.38,1.38 0 0 0 0.49,0.16 v 0 a 2.49,2.49 0 0 1 0.62,0.19 1.08,1.08 0 0 1 0.48,0.4 0.86,0.86 0 0 1 0.12,0.44 1,1 0 0 1 -0.42,0.78 1.5,1.5 0 0 1 -0.87,0.27 2,2 0 0 1 -1.2,-0.46 0.37,0.37 0 0 1 -0.03,-0.49 z"
         style="fill:#263238"
         id="path66" /><path
         d="m 599.38069,274.75023 -1.11,2.61 c 0,0 0,0 0,0.05 v 0 0 0 0 0 c 0,0 0,0 -0.06,0 h -0.27 c 0,0 0,0 -0.06,0 v 0 0 0 0 0 -0.05 l -0.49,-1.17 -0.47,1.17 v 0.05 0 0 0 0 c 0,0 0,0 -0.06,0 h -0.28 a 0.1,0.1 0 0 1 -0.07,0 v 0 0 0 c 0,0 0,0 0,0 v 0 -0.05 l -1.1,-2.61 a 0.34,0.34 0 0 1 -0.33,-0.45 0.32,0.32 0 0 1 0.44,0.2 l 0.8,1.81 0.47,-1.13 a 0.35,0.35 0 0 1 0.32,-0.21 0.34,0.34 0 0 1 0.33,0.21 l 0.48,1.13 0.79,-1.81 a 0.33,0.33 0 0 1 0.45,-0.2 0.35,0.35 0 0 1 0.22,0.45 z"
         style="fill:#263238"
         id="path67" /><path
         d="m 600.98069,277.08023 a 1.65,1.65 0 0 1 -0.46,-1.18 1.74,1.74 0 0 1 0.46,-1.18 1.59,1.59 0 0 1 1.16,-0.51 1.51,1.51 0 0 1 1.12,0.51 1.71,1.71 0 0 1 0.47,1.18 1.62,1.62 0 0 1 -0.47,1.18 1.48,1.48 0 0 1 -1.12,0.51 1.55,1.55 0 0 1 -1.16,-0.51 z m 0.27,-1.18 a 1.11,1.11 0 0 0 0.24,0.71 0.92,0.92 0 0 0 0.65,0.25 0.86,0.86 0 0 0 0.61,-0.25 1,1 0 0 0 0.27,-0.71 1,1 0 0 0 -0.27,-0.7 0.91,0.91 0 0 0 -0.61,-0.25 1,1 0 0 0 -0.65,0.25 1.08,1.08 0 0 0 -0.24,0.7 z"
         style="fill:#263238"
         id="path68" /><path
         d="m 606.80069,274.57023 a 0.36,0.36 0 0 1 -0.35,0.36 0.71,0.71 0 0 0 -0.41,0.12 1.23,1.23 0 0 0 -0.31,0.33 1.81,1.81 0 0 0 -0.27,0.56 v 1.28 a 0.37,0.37 0 0 1 -0.73,0 v -2.65 a 0.37,0.37 0 0 1 0.73,0 v 0.05 a 0.93,0.93 0 0 1 0.14,-0.14 1.43,1.43 0 0 1 0.85,-0.26 0.35,0.35 0 0 1 0.35,0.35 z"
         style="fill:#263238"
         id="path69" /><path
         d="m 610.55069,277.21023 a 0.36,0.36 0 0 1 -0.36,0.36 0.36,0.36 0 0 1 -0.35,-0.29 1.62,1.62 0 0 1 -0.92,0.29 1.68,1.68 0 0 1 0,-3.36 1.56,1.56 0 0 1 0.9,0.29 v -1.27 a 0.37,0.37 0 0 1 0.73,0 v 2.66 0 z m -1.63,-2.26 a 0.89,0.89 0 0 0 -0.63,0.27 1,1 0 0 0 -0.27,0.68 0.92,0.92 0 0 0 0.27,0.66 0.86,0.86 0 0 0 0.63,0.28 0.83,0.83 0 0 0 0.63,-0.28 0.92,0.92 0 0 0 0.27,-0.66 1,1 0 0 0 -0.27,-0.68 0.85,0.85 0 0 0 -0.63,-0.27 z"
         style="fill:#263238"
         id="path70" /><rect
         x="579.50067"
         y="282.69025"
         width="121.16"
         height="14.39"
         style="fill:#ebebeb"
         id="rect70" /><path
         d="m 586.82069,313.20023 a 0.13,0.13 0 0 1 0.13,-0.13 0.13,0.13 0 0 1 0.14,0.13 v 3.65 a 0.14,0.14 0 0 1 -0.14,0.14 0.13,0.13 0 0 1 -0.13,-0.14 z"
         style="fill:#263238"
         id="path71" /><path
         d="m 592.40069,314.38023 v 2.47 a 0.13,0.13 0 1 1 -0.26,0 v -0.4 a 1.3,1.3 0 0 1 -1,0.54 1.37,1.37 0 0 1 0,-2.74 1.29,1.29 0 0 1 1,0.53 v -0.4 a 0.13,0.13 0 0 1 0.26,0 z m -0.26,1.24 a 1,1 0 1 0 -1,1.1 1.07,1.07 0 0 0 1,-1.1 z"
         style="fill:#263238"
         id="path72" /><path
         d="m 596.16069,316.77023 a 1.3,1.3 0 0 1 -1.3,1.29 1.4,1.4 0 0 1 -0.57,-0.13 0.14,0.14 0 0 1 -0.05,-0.18 0.12,0.12 0 0 1 0.18,-0.06 1,1 0 0 0 0.44,0.1 1,1 0 0 0 1,-1 v -0.34 a 1.23,1.23 0 0 1 -1,0.54 1.36,1.36 0 0 1 0,-2.72 1.27,1.27 0 0 1 1,0.53 v -0.4 a 0.13,0.13 0 0 1 0.22,-0.1 0.13,0.13 0 0 1 0.13,0.13 z m -0.27,-1.16 a 1,1 0 1 0 -1,1.1 1.06,1.06 0 0 0 1,-1.1 z"
         style="fill:#263238"
         id="path73" /><path
         d="m 597.45069,314.39023 a 0.14,0.14 0 0 1 0.14,-0.14 0.13,0.13 0 0 1 0.13,0.14 v 0.6 -0.07 a 1.34,1.34 0 0 1 1.1,-0.67 0.13,0.13 0 0 1 0.13,0.14 0.13,0.13 0 0 1 -0.13,0.13 1,1 0 0 0 -0.8,0.45 2.42,2.42 0 0 0 -0.33,0.64 v 1.2 a 0.13,0.13 0 0 1 -0.13,0.14 0.14,0.14 0 0 1 -0.14,-0.14 z"
         style="fill:#263238"
         id="path74" /><path
         d="m 599.43069,315.62023 a 1.3309395,1.3309395 0 0 1 2.66,-0.1 v 0 0 a 0.13,0.13 0 0 1 -0.14,0.12 h -2.25 a 1.08,1.08 0 0 0 1.07,1.05 1,1 0 0 0 0.88,-0.5 0.13,0.13 0 0 1 0.18,0 0.15,0.15 0 0 1 0.05,0.19 1.33,1.33 0 0 1 -1.11,0.62 1.36,1.36 0 0 1 -1.34,-1.38 z m 0.29,-0.22 h 2.08 a 1.05,1.05 0 0 0 -2.08,0 z"
         style="fill:#263238"
         id="path75" /><path
         d="m 602.84069,315.62023 a 1.33,1.33 0 0 1 2.65,-0.1 v 0 0 a 0.12,0.12 0 0 1 -0.13,0.12 h -2.28 a 1.08,1.08 0 0 0 1.06,1.05 1,1 0 0 0 0.89,-0.5 0.13,0.13 0 0 1 0.18,0 0.14,0.14 0 0 1 0,0.19 1.31,1.31 0 0 1 -1.11,0.62 1.35,1.35 0 0 1 -1.26,-1.38 z m 0.29,-0.22 h 2.07 a 1.035,1.035 0 0 0 -2.07,0 z"
         style="fill:#263238"
         id="path76" /><path
         d="m 609.08069,314.38023 a 0.14,0.14 0 0 1 -0.13,0.13 h -0.36 v 2 a 0.22,0.22 0 0 0 0.2,0.21 0.14,0.14 0 1 1 0,0.27 0.47,0.47 0 0 1 -0.48,-0.48 v -2 h -0.34 c -0.13,0 -0.13,-0.06 -0.13,-0.13 0,-0.07 0,-0.13 0.13,-0.13 h 0.34 v -1 a 0.14,0.14 0 1 1 0.28,0 v 1 h 0.36 a 0.14,0.14 0 0 1 0.13,0.13 z"
         style="fill:#263238"
         id="path77" /><path
         d="m 611.45069,314.30023 a 1.37,1.37 0 0 1 0,2.74 1.37,1.37 0 0 1 0,-2.74 z m 0,2.47 a 1.11,1.11 0 1 0 -1,-1.1 1.07,1.07 0 0 0 1,1.05 z"
         style="fill:#263238"
         id="path78" /><path
         d="m 617.75069,314.38023 v 2.47 a 0.13,0.13 0 0 1 -0.13,0.14 0.14,0.14 0 0 1 -0.14,-0.14 v -0.4 a 1.28,1.28 0 0 1 -1,0.54 1.37,1.37 0 0 1 0,-2.74 1.27,1.27 0 0 1 1,0.53 v -0.4 a 0.13,0.13 0 0 1 0.14,-0.13 0.13,0.13 0 0 1 0.13,0.13 z m -0.27,1.24 a 1,1 0 1 0 -1,1.1 1.07,1.07 0 0 0 1,-1.1 z"
         style="fill:#263238"
         id="path79" /><path
         d="m 619.08069,313.20023 a 0.13,0.13 0 0 1 0.14,-0.13 0.14,0.14 0 0 1 0.14,0.13 v 3.65 a 0.14,0.14 0 0 1 -0.14,0.14 0.14,0.14 0 0 1 -0.14,-0.14 z"
         style="fill:#263238"
         id="path80" /><path
         d="m 620.42069,313.20023 a 0.14,0.14 0 0 1 0.28,0 v 3.65 a 0.14,0.14 0 0 1 -0.28,0 z"
         style="fill:#263238"
         id="path81" /><path
         d="m 623.27069,316.42023 a 0.13,0.13 0 0 1 0.19,0 1.46,1.46 0 0 0 0.84,0.32 0.85,0.85 0 0 0 0.52,-0.17 0.39,0.39 0 0 0 0,-0.67 1.34,1.34 0 0 0 -0.59,-0.2 v 0 a 1.56,1.56 0 0 1 -0.62,-0.21 0.57,0.57 0 0 1 -0.29,-0.49 0.69,0.69 0 0 1 0.29,-0.54 1.18,1.18 0 0 1 0.67,-0.18 1.48,1.48 0 0 1 0.82,0.29 0.14,0.14 0 0 1 0,0.19 0.13,0.13 0 0 1 -0.18,0 1.27,1.27 0 0 0 -0.68,-0.27 0.87,0.87 0 0 0 -0.52,0.15 0.43,0.43 0 0 0 -0.17,0.32 0.32,0.32 0 0 0 0.16,0.27 1.25,1.25 0 0 0 0.56,0.19 v 0 a 1.84,1.84 0 0 1 0.66,0.23 0.67,0.67 0 0 1 0.31,0.56 0.7,0.7 0 0 1 -0.31,0.55 1.13,1.13 0 0 1 -0.68,0.22 1.7,1.7 0 0 1 -1,-0.39 0.13,0.13 0 0 1 0.02,-0.17 z"
         style="fill:#263238"
         id="path82" /><path
         d="m 627.25069,314.38023 a 0.14,0.14 0 0 1 -0.13,0.13 h -0.36 v 2 a 0.22,0.22 0 0 0 0.2,0.21 0.14,0.14 0 1 1 0,0.27 0.47,0.47 0 0 1 -0.48,-0.48 v -2 h -0.34 c -0.13,0 -0.13,-0.06 -0.13,-0.13 0,-0.07 0,-0.13 0.13,-0.13 h 0.34 v -1 a 0.14,0.14 0 1 1 0.28,0 v 1 h 0.32 a 0.14,0.14 0 0 1 0.17,0.13 z"
         style="fill:#263238"
         id="path83" /><path
         d="m 630.66069,314.38023 v 2.47 a 0.13,0.13 0 0 1 -0.13,0.14 0.14,0.14 0 0 1 -0.14,-0.14 v -0.4 a 1.28,1.28 0 0 1 -1,0.54 1.37,1.37 0 0 1 0,-2.74 1.27,1.27 0 0 1 1,0.53 v -0.4 a 0.13,0.13 0 0 1 0.14,-0.13 0.13,0.13 0 0 1 0.13,0.13 z m -0.27,1.24 a 1,1 0 1 0 -1,1.1 1.07,1.07 0 0 0 1,-1.1 z"
         style="fill:#263238"
         id="path84" /><path
         d="m 632.78069,314.38023 a 0.14,0.14 0 0 1 -0.13,0.13 h -0.36 v 2 a 0.22,0.22 0 0 0 0.21,0.21 0.14,0.14 0 1 1 0,0.27 0.46,0.46 0 0 1 -0.48,-0.48 v -2 h -0.35 c -0.13,0 -0.13,-0.06 -0.13,-0.13 0,-0.07 0,-0.13 0.13,-0.13 h 0.35 v -1 a 0.14,0.14 0 0 1 0.13,-0.14 0.15,0.15 0 0 1 0.14,0.14 v 1 h 0.36 a 0.14,0.14 0 0 1 0.13,0.13 z"
         style="fill:#263238"
         id="path85" /><path
         d="m 633.64069,315.62023 a 1.3309395,1.3309395 0 0 1 2.66,-0.1 v 0 0 a 0.13,0.13 0 0 1 -0.14,0.12 h -2.25 a 1.08,1.08 0 0 0 1.07,1.05 1,1 0 0 0 0.88,-0.5 0.13,0.13 0 0 1 0.18,0 0.14,0.14 0 0 1 0,0.19 1.3,1.3 0 0 1 -1.1,0.62 1.36,1.36 0 0 1 -1.3,-1.38 z m 0.29,-0.22 h 2.08 a 1.05,1.05 0 0 0 -2.08,0 z"
         style="fill:#263238"
         id="path86" /><path
         d="m 641.17069,315.37023 a 0.85,0.85 0 1 0 -1.7,0 v 1.51 0 a 0.12,0.12 0 0 1 -0.07,0.07 h -0.07 -0.09 v 0 0 c 0,0 0,0 0,0 v 0 0 -1.49 a 0.85,0.85 0 1 0 -1.69,0 v 1.49 a 0.13,0.13 0 0 1 -0.06,0.11 h -0.09 a 0.17,0.17 0 0 1 -0.12,-0.1 v -2.51 a 0.14,0.14 0 0 1 0.13,-0.13 0.13,0.13 0 0 1 0.14,0.13 v 0.26 a 1.08,1.08 0 0 1 0.84,-0.39 1.12,1.12 0 0 1 1,0.58 1.16,1.16 0 0 1 1,-0.58 1.11,1.11 0 0 1 1.11,1.12 v 1.49 a 0.13,0.13 0 0 1 -0.13,0.13 0.13,0.13 0 0 1 -0.13,-0.13 z"
         style="fill:#263238"
         id="path87" /><path
         d="m 642.37069,315.62023 a 1.33,1.33 0 0 1 2.65,-0.1 v 0 0 a 0.12,0.12 0 0 1 -0.13,0.12 h -2.25 a 1.08,1.08 0 0 0 1.06,1.05 1,1 0 0 0 0.89,-0.5 0.13,0.13 0 0 1 0.18,0 0.14,0.14 0 0 1 0,0.19 1.31,1.31 0 0 1 -1.11,0.62 1.35,1.35 0 0 1 -1.29,-1.38 z m 0.29,-0.22 h 2.07 a 1.035,1.035 0 0 0 -2.07,0 z"
         style="fill:#263238"
         id="path88" /><path
         d="m 647.93069,315.37023 a 0.84,0.84 0 0 0 -0.84,-0.85 0.86,0.86 0 0 0 -0.85,0.85 v 1.51 0.06 a 0.14,0.14 0 0 1 -0.1,0.05 v 0 a 0.16,0.16 0 0 1 -0.09,-0.07 v 0 -2.5 a 0.14,0.14 0 0 1 0.03,-0.12 0.13,0.13 0 0 1 0.13,0.14 v 0.26 a 1.11,1.11 0 0 1 2,0.72 v 1.48 a 0.13,0.13 0 0 1 -0.13,0.14 0.14,0.14 0 0 1 -0.14,-0.14 z"
         style="fill:#263238"
         id="path89" /><path
         d="m 650.36069,314.38023 a 0.14,0.14 0 0 1 -0.14,0.13 h -0.35 v 2 a 0.22,0.22 0 0 0 0.2,0.21 0.14,0.14 0 1 1 0,0.27 0.47,0.47 0 0 1 -0.48,-0.48 v -2 h -0.34 c -0.13,0 -0.13,-0.06 -0.13,-0.13 0,-0.07 0,-0.13 0.13,-0.13 h 0.34 v -1 a 0.14,0.14 0 1 1 0.28,0 v 1 h 0.35 a 0.14,0.14 0 0 1 0.14,0.13 z"
         style="fill:#263238"
         id="path90" /><path
         d="m 651.45069,316.42023 a 0.13,0.13 0 0 1 0.19,0 1.46,1.46 0 0 0 0.84,0.32 0.83,0.83 0 0 0 0.52,-0.17 0.43,0.43 0 0 0 0.21,-0.33 0.46,0.46 0 0 0 -0.2,-0.34 1.29,1.29 0 0 0 -0.58,-0.2 v 0 a 1.46,1.46 0 0 1 -0.62,-0.21 0.56,0.56 0 0 1 -0.3,-0.49 0.67,0.67 0 0 1 0.3,-0.54 1.18,1.18 0 0 1 0.67,-0.18 1.54,1.54 0 0 1 0.82,0.29 0.14,0.14 0 0 1 0,0.19 0.13,0.13 0 0 1 -0.18,0 1.21,1.21 0 0 0 -0.67,-0.27 0.83,0.83 0 0 0 -0.52,0.15 0.41,0.41 0 0 0 -0.18,0.32 0.32,0.32 0 0 0 0.16,0.27 1.3,1.3 0 0 0 0.56,0.19 v 0 a 1.89,1.89 0 0 1 0.67,0.23 0.67,0.67 0 0 1 0.31,0.56 0.68,0.68 0 0 1 -0.32,0.55 1.11,1.11 0 0 1 -0.68,0.22 1.67,1.67 0 0 1 -1,-0.39 0.12,0.12 0 0 1 0,-0.17 z"
         style="fill:#263238"
         id="path91" /><path
         d="m 656.08069,313.48023 a 0.13,0.13 0 0 1 0.13,-0.13 0.13,0.13 0 0 1 0.14,0.13 v 0.13 a 0.14,0.14 0 1 1 -0.27,0 z m 0,0.9 a 0.13,0.13 0 0 1 0.13,-0.13 0.13,0.13 0 0 1 0.14,0.13 v 2.47 a 0.14,0.14 0 0 1 -0.14,0.14 0.13,0.13 0 0 1 -0.13,-0.14 z"
         style="fill:#263238"
         id="path92" /><path
         d="m 659.60069,315.37023 a 0.84,0.84 0 0 0 -0.84,-0.85 0.86,0.86 0 0 0 -0.85,0.85 v 1.51 0.06 a 0.14,0.14 0 0 1 -0.1,0.05 v 0 a 0.16,0.16 0 0 1 -0.09,-0.07 v 0 -2.5 a 0.14,0.14 0 0 1 0.14,-0.14 0.13,0.13 0 0 1 0.13,0.14 v 0.26 a 1.1,1.1 0 0 1 0.85,-0.4 1.12,1.12 0 0 1 1.11,1.12 v 1.48 a 0.13,0.13 0 0 1 -0.13,0.14 0.14,0.14 0 0 1 -0.14,-0.14 z"
         style="fill:#263238"
         id="path93" /><path
         d="m 663.71069,314.38023 a 0.14,0.14 0 0 1 -0.14,0.13 h -0.35 v 2 a 0.22,0.22 0 0 0 0.2,0.21 0.14,0.14 0 1 1 0,0.27 0.47,0.47 0 0 1 -0.48,-0.48 v -2 h -0.34 c -0.14,0 -0.14,-0.06 -0.14,-0.13 0,-0.07 0,-0.13 0.14,-0.13 h 0.34 v -1 a 0.15,0.15 0 0 1 0.13,-0.14 0.15,0.15 0 0 1 0.15,0.14 v 1 h 0.35 a 0.14,0.14 0 0 1 0.14,0.13 z"
         style="fill:#263238"
         id="path94" /><path
         d="m 664.57069,315.62023 a 1.33,1.33 0 0 1 2.65,-0.1 v 0 0 a 0.12,0.12 0 0 1 -0.13,0.12 h -2.25 a 1.06,1.06 0 0 0 1.06,1.05 1,1 0 0 0 0.88,-0.5 0.13,0.13 0 0 1 0.18,0 0.13,0.13 0 0 1 0.05,0.19 1.33,1.33 0 0 1 -1.11,0.62 1.35,1.35 0 0 1 -1.33,-1.38 z m 0.28,-0.22 h 2.08 a 1.05,1.05 0 0 0 -2.08,0 z"
         style="fill:#263238"
         id="path95" /><path
         d="m 668.08069,314.39023 a 0.14,0.14 0 0 1 0.14,-0.14 0.13,0.13 0 0 1 0.13,0.14 v 0.6 -0.07 a 1.34,1.34 0 0 1 1.1,-0.67 0.13,0.13 0 0 1 0.13,0.14 0.13,0.13 0 0 1 -0.13,0.13 1,1 0 0 0 -0.8,0.45 2.42,2.42 0 0 0 -0.33,0.64 v 1.2 a 0.13,0.13 0 0 1 -0.13,0.14 0.14,0.14 0 0 1 -0.14,-0.14 z"
         style="fill:#263238"
         id="path96" /><path
         d="m 674.43069,315.37023 a 0.85,0.85 0 1 0 -1.69,0 v 1.51 0 a 0.12,0.12 0 0 1 -0.07,0.07 h -0.06 -0.09 v 0 0 c 0,0 0,0 0,0 v 0 0 -1.49 a 0.85,0.85 0 1 0 -1.69,0 v 1.49 a 0.13,0.13 0 0 1 -0.06,0.11 h -0.09 a 0.16,0.16 0 0 1 -0.11,-0.1 v -2.51 a 0.13,0.13 0 0 1 0.26,0 v 0.26 a 1.11,1.11 0 0 1 0.85,-0.39 1.12,1.12 0 0 0 2,0 1.12,1.12 0 0 1 1.12,1.12 v 1.49 a 0.13,0.13 0 0 1 -0.14,0.13 0.13,0.13 0 0 1 -0.13,-0.13 z"
         style="fill:#263238"
         id="path97" /><path
         d="m 675.64069,316.42023 a 0.13,0.13 0 0 1 0.19,0 1.46,1.46 0 0 0 0.84,0.32 0.83,0.83 0 0 0 0.52,-0.17 0.43,0.43 0 0 0 0.21,-0.33 0.46,0.46 0 0 0 -0.2,-0.34 1.29,1.29 0 0 0 -0.58,-0.2 v 0 a 1.46,1.46 0 0 1 -0.62,-0.21 0.56,0.56 0 0 1 -0.3,-0.49 0.67,0.67 0 0 1 0.3,-0.54 1.18,1.18 0 0 1 0.67,-0.18 1.48,1.48 0 0 1 0.81,0.29 0.13,0.13 0 0 1 0,0.19 0.13,0.13 0 0 1 -0.18,0 1.21,1.21 0 0 0 -0.67,-0.27 0.83,0.83 0 0 0 -0.52,0.15 0.41,0.41 0 0 0 -0.18,0.32 0.32,0.32 0 0 0 0.16,0.27 1.3,1.3 0 0 0 0.56,0.19 v 0 a 1.89,1.89 0 0 1 0.67,0.23 0.66,0.66 0 0 1 0.3,0.56 0.67,0.67 0 0 1 -0.31,0.55 1.11,1.11 0 0 1 -0.68,0.22 1.67,1.67 0 0 1 -1,-0.39 0.12,0.12 0 0 1 0.01,-0.17 z"
         style="fill:#263238"
         id="path98" /><path
         d="m 681.43069,314.30023 a 1.37,1.37 0 1 1 -1.3,1.37 1.34,1.34 0 0 1 1.3,-1.37 z m 0,2.47 a 1.11,1.11 0 1 0 -1,-1.1 1.07,1.07 0 0 0 1,1.05 z"
         style="fill:#263238"
         id="path99" /><path
         d="m 684.77069,313.22023 a 0.13,0.13 0 0 1 -0.14,0.13 c -0.19,0 -0.29,0 -0.34,0.11 a 0.66,0.66 0 0 0 -0.11,0.45 v 0.29 h 0.38 a 0.14,0.14 0 0 1 0.14,0.14 0.13,0.13 0 0 1 -0.14,0.13 h -0.38 v 2.39 a 0.15,0.15 0 0 1 -0.14,0.14 0.14,0.14 0 0 1 -0.14,-0.14 v -2.39 h -0.36 a 0.13,0.13 0 0 1 -0.14,-0.13 0.14,0.14 0 0 1 0.14,-0.14 h 0.36 v -0.29 a 1,1 0 0 1 0.18,-0.61 0.74,0.74 0 0 1 0.55,-0.19 0.14,0.14 0 0 1 0.14,0.11 z"
         style="fill:#263238"
         id="path100" /><path
         d="m 687.08069,316.42023 a 0.13,0.13 0 0 1 0.19,0 1.49,1.49 0 0 0 0.84,0.32 0.81,0.81 0 0 0 0.52,-0.17 0.38,0.38 0 0 0 0,-0.67 1.25,1.25 0 0 0 -0.58,-0.2 v 0 a 1.51,1.51 0 0 1 -0.62,-0.21 0.58,0.58 0 0 1 -0.3,-0.49 0.7,0.7 0 0 1 0.3,-0.54 1.18,1.18 0 0 1 0.65,-0.16 1.51,1.51 0 0 1 0.82,0.29 0.14,0.14 0 0 1 0,0.19 0.14,0.14 0 0 1 -0.19,0 1.21,1.21 0 0 0 -0.67,-0.27 0.87,0.87 0 0 0 -0.52,0.15 0.43,0.43 0 0 0 -0.17,0.32 0.33,0.33 0 0 0 0.15,0.27 1.35,1.35 0 0 0 0.56,0.19 v 0 a 1.83,1.83 0 0 1 0.67,0.23 0.67,0.67 0 0 1 0.31,0.56 0.7,0.7 0 0 1 -0.31,0.55 1.14,1.14 0 0 1 -0.69,0.22 1.67,1.67 0 0 1 -1,-0.39 0.13,0.13 0 0 1 0.04,-0.19 z"
         style="fill:#263238"
         id="path101" /><path
         d="m 689.82069,315.62023 a 1.33,1.33 0 0 1 2.65,-0.1 v 0 0 a 0.12,0.12 0 0 1 -0.13,0.12 h -2.26 a 1.08,1.08 0 0 0 1.06,1.05 1,1 0 0 0 0.89,-0.5 0.13,0.13 0 0 1 0.18,0 0.14,0.14 0 0 1 0,0.19 1.31,1.31 0 0 1 -1.11,0.62 1.35,1.35 0 0 1 -1.28,-1.38 z m 0.28,-0.22 h 2.08 a 1.06,1.06 0 0 0 -1,-0.89 1.09,1.09 0 0 0 -1.1,0.89 z"
         style="fill:#263238"
         id="path102" /><path
         d="m 693.30069,314.39023 a 0.15,0.15 0 0 1 0.15,-0.14 0.13,0.13 0 0 1 0.12,0.14 v 0.6 a 0.43,0.43 0 0 0 0,-0.07 1.34,1.34 0 0 1 1.1,-0.67 0.13,0.13 0 0 1 0.13,0.14 0.13,0.13 0 0 1 -0.13,0.13 1,1 0 0 0 -0.8,0.45 2.42,2.42 0 0 0 -0.33,0.64 v 1.2 a 0.13,0.13 0 0 1 -0.12,0.14 0.15,0.15 0 0 1 -0.15,-0.14 z"
         style="fill:#263238"
         id="path103" /><path
         d="m 696.64069,316.97023 v -0.06 l -1,-2.46 a 0.13,0.13 0 0 1 0.06,-0.17 0.14,0.14 0 0 1 0.18,0.07 l 0.91,2.16 0.91,-2.16 a 0.12,0.12 0 0 1 0.17,-0.07 0.13,0.13 0 0 1 0.07,0.17 l -1,2.43 a 0.16,0.16 0 0 1 0,0.07 0.11,0.11 0 0 1 -0.09,0 h -0.08 z"
         style="fill:#263238"
         id="path104" /><path
         d="m 699.02069,313.48023 a 0.13,0.13 0 0 1 0.14,-0.13 0.14,0.14 0 0 1 0.14,0.13 v 0.13 a 0.15,0.15 0 0 1 -0.14,0.15 0.15,0.15 0 0 1 -0.14,-0.15 z m 0,0.9 a 0.13,0.13 0 0 1 0.14,-0.13 0.13,0.13 0 0 1 0.14,0.13 v 2.47 a 0.14,0.14 0 0 1 -0.14,0.14 0.14,0.14 0 0 1 -0.14,-0.14 z"
         style="fill:#263238"
         id="path105" /><path
         d="m 700.39069,315.61023 a 1.38,1.38 0 0 1 1.41,-1.36 1.42,1.42 0 0 1 0.88,0.3 0.13,0.13 0 0 1 0,0.18 0.14,0.14 0 0 1 -0.18,0 1.12,1.12 0 1 0 -0.71,2 1.17,1.17 0 0 0 0.71,-0.24 0.13,0.13 0 0 1 0.18,0 0.14,0.14 0 0 1 0,0.2 1.42,1.42 0 0 1 -0.87,0.29 1.39,1.39 0 0 1 -1.42,-1.37 z"
         style="fill:#263238"
         id="path106" /><path
         d="m 703.50069,315.62023 a 1.3309395,1.3309395 0 0 1 2.66,-0.1 v 0 0 a 0.13,0.13 0 0 1 -0.14,0.12 h -2.25 a 1.08,1.08 0 0 0 1.06,1.05 1,1 0 0 0 0.89,-0.5 0.13,0.13 0 0 1 0.18,0 0.14,0.14 0 0 1 0,0.19 1.31,1.31 0 0 1 -1.11,0.62 1.36,1.36 0 0 1 -1.29,-1.38 z m 0.29,-0.22 h 2.08 a 1.05,1.05 0 0 0 -2.08,0 z"
         style="fill:#263238"
         id="path107" /><path
         d="m 580.99069,318.78023 h -7.91 v -7.92 h 7.92 z m -6.92,-1 h 5.92 v -5.92 h -5.91 z"
         style="fill:#ebebeb"
         id="path108" /><path
         d="m 694.08069,219.64023 a 1.46,1.46 0 1 1 -1.46,-1.46 1.45,1.45 0 0 1 1.46,1.46 z"
         style="fill:#a6a6a6"
         id="path109" /><path
         d="m 695.14069,223.64023 h -5.06 a 2.53,2.53 0 0 1 5.05,0 z"
         style="fill:#a6a6a6"
         id="path110" /><path
         d="m 690.08069,253.95023 -0.86,-0.69 h 6.75 l -0.86,0.69 c -0.29,0.23 -0.58,0.46 -0.86,0.7 l -0.95,0.8 v 0 l -0.71,0.6 -0.71,-0.6 v 0 l -0.95,-0.8 z"
         style="fill:#a6a6a6"
         id="path111" /><path
         d="m 695.99069,253.30023 v 4.28 h -6.75 v -4.28 l 0.82,0.77 0.84,0.75 0.87,0.77 v 0 0 h -0.05 a 6.26,6.26 0 0 0 -0.55,0.34 c -0.23,0.14 -0.45,0.29 -0.68,0.45 l -0.65,0.47 c -0.22,0.17 -0.43,0.33 -0.64,0.51 0.24,-0.13 0.47,-0.27 0.7,-0.42 0.23,-0.15 0.45,-0.29 0.67,-0.45 0.22,-0.16 0.45,-0.31 0.66,-0.47 0.21,-0.16 0.35,-0.27 0.52,-0.42 v 0 l 0.74,0.64 v 0 0 l 0.74,-0.64 v 0 c 0.17,0.15 0.34,0.28 0.51,0.42 l 0.66,0.47 c 0.22,0.16 0.45,0.31 0.67,0.45 0.22,0.14 0.46,0.29 0.7,0.42 -0.2,-0.18 -0.42,-0.34 -0.63,-0.51 l -0.66,-0.47 c -0.22,-0.16 -0.44,-0.31 -0.67,-0.45 a 6.42,6.42 0 0 0 -0.56,-0.34 h -0.05 v 0 0 l 0.88,-0.77 0.83,-0.75 z"
         style="fill:#a6a6a6"
         id="path112" /><path
         d="m 692.61069,288.23023 a 4.93,4.93 0 0 0 -3.37,1.67 4.26,4.26 0 0 0 6.75,0 4.94,4.94 0 0 0 -3.38,-1.67 z m 0,2.85 a 1.19,1.19 0 1 1 1.19,-1.19 1.18,1.18 0 0 1 -1.19,1.19 z"
         style="fill:#a6a6a6"
         id="path113" /><path
         d="m 693.37069,289.89023 a 0.76,0.76 0 1 1 -1.51,0 0.76,0.76 0 0 1 1.51,0 z"
         style="fill:#a6a6a6"
         id="path114" /><rect
         x="611.14069"
         y="335.79022"
         width="57.889999"
         height="17.459999"
         style="fill:#2d40be;fill-opacity:1"
         id="rect114" /><path
         d="m 621.78069,345.92023 a 0.46,0.46 0 0 1 0.65,-0.06 2.93,2.93 0 0 0 1.71,0.69 1.91,1.91 0 0 0 1.12,-0.33 0.81,0.81 0 0 0 0.39,-0.65 0.54,0.54 0 0 0 -0.08,-0.28 1,1 0 0 0 -0.27,-0.27 3.63,3.63 0 0 0 -1.23,-0.42 v 0 a 4.84,4.84 0 0 1 -1.15,-0.35 2,2 0 0 1 -0.84,-0.7 1.44,1.44 0 0 1 -0.2,-0.74 1.64,1.64 0 0 1 0.71,-1.3 2.62,2.62 0 0 1 1.55,-0.48 3.51,3.51 0 0 1 2,0.72 0.46,0.46 0 0 1 0.12,0.63 0.45,0.45 0 0 1 -0.63,0.14 2.58,2.58 0 0 0 -1.45,-0.57 1.7,1.7 0 0 0 -1,0.3 0.72,0.72 0 0 0 -0.34,0.56 0.46,0.46 0 0 0 0.06,0.25 0.91,0.91 0 0 0 0.24,0.24 3.21,3.21 0 0 0 1.12,0.39 v 0 a 5.31,5.31 0 0 1 1.24,0.38 2,2 0 0 1 0.89,0.74 1.43,1.43 0 0 1 0.22,0.76 1.72,1.72 0 0 1 -0.77,1.39 2.82,2.82 0 0 1 -1.66,0.51 3.87,3.87 0 0 1 -2.29,-0.89 0.47,0.47 0 0 1 -0.11,-0.66 z"
         style="fill:#ffffff"
         id="path115" /><path
         d="m 628.01069,341.70023 a 0.48,0.48 0 0 1 0.49,-0.49 0.5,0.5 0 0 1 0.5,0.49 v 5.29 a 0.49,0.49 0 0 1 -0.5,0.49 0.48,0.48 0 0 1 -0.49,-0.49 z"
         style="fill:#ffffff"
         id="path116" /><path
         d="m 630.40069,344.30023 a 3.31,3.31 0 0 1 5.34,-2.53 0.51002451,0.51002451 0 1 1 -0.62,0.81 2.32,2.32 0 0 0 -1.42,-0.49 2.19,2.19 0 0 0 -1.61,0.66 2.13,2.13 0 0 0 0,3.1 2.22,2.22 0 0 0 1.61,0.65 2.44,2.44 0 0 0 1.23,-0.34 v -1.23 h -1.28 a 0.51,0.51 0 0 1 -0.51,-0.51 0.5,0.5 0 0 1 0.51,-0.5 h 1.78 a 0.5,0.5 0 0 1 0.52,0.5 v 2 a 0.66,0.66 0 0 1 0,0.15 0.09,0.09 0 0 0 0,0.05 v 0 a 0.44,0.44 0 0 1 -0.18,0.21 3.28,3.28 0 0 1 -2,0.7 3.25,3.25 0 0 1 -3.37,-3.23 z"
         style="fill:#ffffff"
         id="path117" /><path
         d="m 638.95069,346.99023 a 0.5,0.5 0 0 1 -0.49,0.49 0.48,0.48 0 0 1 -0.49,-0.49 v -5.21 0 a 0.48,0.48 0 0 1 0.2,-0.42 0.5,0.5 0 0 1 0.68,0.11 l 2.89,4 v -3.69 a 0.49,0.49 0 0 1 0.48,-0.48 0.5,0.5 0 0 1 0.5,0.48 v 5.21 a 0.5,0.5 0 0 1 -0.5,0.49 0.47,0.47 0 0 1 -0.36,-0.18 l -0.05,-0.05 -2.86,-4 z"
         style="fill:#ffffff"
         id="path118" /><path
         d="m 650.14069,347.48023 a 2.58,2.58 0 0 1 -2.58,-2.59 v -3.19 a 0.48,0.48 0 0 1 0.49,-0.49 0.5,0.5 0 0 1 0.5,0.49 v 3.19 a 1.6,1.6 0 1 0 3.19,0 v -3.19 a 0.49,0.49 0 0 1 0.5,-0.49 0.48,0.48 0 0 1 0.49,0.49 v 3.19 a 2.58,2.58 0 0 1 -2.59,2.59 z"
         style="fill:#ffffff"
         id="path119" /><path
         d="m 656.93069,345.04023 h -1.1 v 1.95 a 0.5,0.5 0 0 1 -1,0 v -5.29 a 0.5,0.5 0 0 1 0.49,-0.49 h 1.61 a 1.92,1.92 0 1 1 0,3.83 z m -1.1,-1 h 1.1 a 0.92,0.92 0 1 0 0,-1.84 h -1.1 z"
         style="fill:#ffffff"
         id="path120" /><circle
         cx="665.86072"
         cy="139.60023"
         r="11.52"
         style="fill:#455a64"
         id="circle120" /><circle
         cx="612.58069"
         cy="182.28023"
         r="8.0799999"
         style="fill:#ebebeb"
         id="circle121" /><path
         d="m 656.50069,186.88023 a 30.71,30.71 0 0 1 -9,3.76 31.17,31.17 0 1 1 9,-3.76 z"
         style="fill:#2d40be;fill-opacity:1"
         id="path121" /><path
         d="m 649.59069,156.79023 a 9.49,9.49 0 1 1 -9.51,-9.49 9.48,9.48 0 0 1 9.51,9.49 z"
         style="fill:#ffffff"
         id="path122" /><path
         d="m 656.50069,182.97023 v 3.91 a 30.71,30.71 0 0 1 -9,3.76 31,31 0 0 1 -23.8,-3.77 v -3.9 a 16.4,16.4 0 1 1 32.79,0 z"
         style="fill:#ffffff"
         id="path123" /><path
         d="m 695.0798,239.43893 a 21.6,21.6 0 0 1 -0.37,-4.23 20.86,20.86 0 0 1 0.37,-4.23 20.87,20.87 0 0 1 0.38,4.23 21.61,21.61 0 0 1 -0.38,4.23 z"
         style="fill:#263238"
         id="path124" /><path
         d="m 689.0698,242.10893 a 21.9,21.9 0 0 1 -3.25,-2.72 21.44,21.44 0 0 1 -2.73,-3.26 24,24 0 0 1 6,6 z"
         style="fill:#263238"
         id="path125" /><path
         d="m 686.7098,248.24893 a 21.5,21.5 0 0 1 -4.22,0.37 20.86,20.86 0 0 1 -4.23,-0.37 24.31,24.31 0 0 1 8.45,0 z"
         style="fill:#263238"
         id="path126" /><path
         d="m 689.3898,254.25893 a 24.5,24.5 0 0 1 -6,6 20.82,20.82 0 0 1 2.72,-3.26 22,22 0 0 1 3.28,-2.74 z"
         style="fill:#263238"
         id="path127" /><path
         d="m 695.5198,256.61893 a 23.68,23.68 0 0 1 0,8.45 24.31,24.31 0 0 1 0,-8.45 z"
         style="fill:#263238"
         id="path128" /><path
         d="m 701.5298,253.94893 a 23.78,23.78 0 0 1 6,6 20.74,20.74 0 0 1 -3.25,-2.72 21.86,21.86 0 0 1 -2.75,-3.28 z"
         style="fill:#263238"
         id="path129" /><path
         d="m 703.9398,247.80893 a 23.73,23.73 0 0 1 8.46,0 24.36,24.36 0 0 1 -8.46,0 z"
         style="fill:#263238"
         id="path130" /><path
         d="m 701.2198,241.79893 a 22,22 0 0 1 2.72,-3.26 21.38,21.38 0 0 1 3.26,-2.72 24.5,24.5 0 0 1 -6,6 z"
         style="fill:#263238"
         id="path131" /></g><g
       id="g215"
       transform="translate(-61.61246,2.200445)"><path
         d="m 514.33404,356.31369 c 0,0 21.8,38.6 21.81,38.6 3.5,7.77 6.43,14.65 7.62,18.35 a 0.14,0.14 0 0 1 0,0.06 6,6 0 0 1 0.51,2.66 c 0,0 0,0.05 0,0.07 -1.61,2.61 -62.92,32.41 -65.41,32.73 -2.49,0.32 -3.59,-6.75 -2.13,-9.81 1.46,-3.06 19.84,-25 19.84,-25 l -21.41,-38.7 z"
         style="fill:#f7a9a0"
         id="path137" /><path
         d="m 479.84404,448.53369 c 2.48,-0.32 62.82,-29.89 64.42,-32.5 v -0.07 a 6,6 0 0 0 -0.51,-2.66 0.06,0.06 0 0 0 0,-0.05 c -1.19,-3.7 -4.12,-10.59 -7.61,-18.36 0,0 -3.68,-6.74 -5.14,-9.08 l -39,20.16 4.54,8 c 0,0 -17.39,21.68 -18.85,24.74 -1.46,3.06 -0.35,10.2 2.15,9.82 z"
         style="fill:#ebebeb"
         id="path138" /><path
         d="m 478.71404,447.70369 c 2.51,-0.38 63.6,-31.85 65.16,-34.53 0.61,-1 -3.46,-10.17 -8.69,-21.11 0,-0.11 -0.11,-0.23 -0.17,-0.34 l -39.63,19.86 0.36,0.66 c 0,0 -18,22.51 -19.41,25.63 -1.41,3.12 -0.12,10.22 2.38,9.83 z"
         style="fill:#2d40be;fill-opacity:1"
         id="path139" /><path
         d="m 476.65404,445.99369 c -0.87,1 1.26,4.54 2.2,4.42 0.94,-0.12 67.39,-34.72 68.39,-35.55 1,-0.83 -1.5,-4.69 -2.93,-4.22 -1.43,0.47 -67.66,35.35 -67.66,35.35 z"
         style="fill:#263238"
         id="path146" /><path
         d="m 454.41404,129.36369 c 0,0 7,48.69 6.53,53.32 -0.47,4.63 -6.18,49.51 -6.18,49.51 0,0 -12.82,-2.76 -16.52,-5 -2.66,-1.59 -12.08,-9.71 -12.08,-9.71 0,0 16,-31.3 17.32,-37.65 1.32,-6.35 2.19,-37.14 3.72,-43.34 a 12.6,12.6 0 0 1 7.36,-8.32"
         style="fill:#2d40be;fill-opacity:1"
         id="path132" /><path
         d="m 439.35404,196.91369 a 10.57,10.57 0 0 0 3.94,4.29 c 0.87,0.59 2.55,1.85 3.08,0.22 a 2.93,2.93 0 0 0 -0.22,-1.89 10.47,10.47 0 0 0 -1.82,-3.09 c -0.94,-1.15 -2.5,-2.66 -4.14,-2.38 -1.64,0.28 -1.33,1.71 -0.84,2.85 z"
         style="fill:#263238"
         id="path133" /><path
         d="m 449.60404,204.73369 a 10,10 0 0 0 2.36,5.79 c 0.69,0.72 1.49,0.95 2.11,0.45 0.62,-0.5 0.95,-1.58 1,-2.44 a 10.78,10.78 0 0 0 -1.1,-6 c -0.59,-1.15 -1.63,-2.75 -3.16,-2.4 -1.92,0.5 -1.4,3.19 -1.21,4.6 z"
         style="fill:#263238"
         id="path134" /><path
         d="m 441.78404,203.91369 c -0.87,0.68 0,3.3 0.81,4.54 1,1.58 2.73,3.38 4.16,2.7 0.72,-0.35 0.82,-2.3 -0.76,-4.75 -1.48,-2.25 -3.49,-3.03 -4.21,-2.49 z"
         style="fill:#263238"
         id="path135" /><path
         d="m 437.40404,218.35369 c 0.34,0.67 1.08,1.85 1.95,1.89 0.87,0.04 1,-0.84 1,-1.48 a 9.75,9.75 0 0 0 -0.55,-2.93 c -0.41,-1.28 -1.17,-2.39 -2.4,-2.46 -2.43,-0.13 -0.44,4.12 0,4.98 z"
         style="fill:#263238"
         id="path136" /><path
         d="m 478.19404,444.98369 c 10.16,-5.56 51.7,-27 62.17,-31.74 0.08,0 0.11,0 0,0.06 -10,5.73 -51.66,26.85 -62.12,31.84 -0.21,0.11 -0.27,-0.05 -0.05,-0.16 z"
         style="fill:#ffffff"
         id="path140" /><path
         d="m 492.49404,414.07369 c 3.66,-2.84 8.94,-4.78 13.52,-3.48 0.18,0.05 0.1,0.3 -0.05,0.32 a 64.22,64.22 0 0 0 -13.19,3.66 0.29,0.29 0 0 1 -0.28,-0.5 z"
         style="fill:#263238"
         id="path141" /><path
         d="m 490.47404,417.34369 c 3.66,-2.85 8.94,-4.78 13.52,-3.48 0.18,0.05 0.11,0.3 0,0.32 a 64.57,64.57 0 0 0 -13.19,3.66 0.29954132,0.29954132 0 0 1 -0.33,-0.5 z"
         style="fill:#263238"
         id="path142" /><path
         d="m 488.45404,420.61369 c 3.67,-2.85 8.94,-4.78 13.53,-3.48 0.17,0 0.1,0.3 -0.05,0.32 a 64.49,64.49 0 0 0 -13.2,3.66 0.29,0.29 0 0 1 -0.28,-0.5 z"
         style="fill:#263238"
         id="path143" /><path
         d="m 528.45404,403.76369 c 3.29,-4.5 10.28,0.6 7,5.11 -3.28,4.51 -10.29,-0.61 -7,-5.11 z"
         style="fill:#ffffff"
         id="path144" /><path
         d="m 493.03404,415.62369 -4.39,27.43 a 108.44,108.44 0 0 1 -9.94,4.65 c -2.5,0.39 -3.78,-6.72 -2.39,-9.83 1.09,-2.36 11.72,-15.85 16.72,-22.25 z"
         style="opacity:0.1"
         id="path145" /><path
         d="m 531.10404,382.21369 -43.94,23.46 c 0,0 -55.46,-79 -56.56,-99.8 -1.54,-28.68 22.95,-119.73 22.95,-119.73 l 39.06,-0.26 c 0,0 -15.88,93.63 -14.58,109.6 0.67,8.36 53.07,86.73 53.07,86.73 z"
         style="fill:#37474f"
         id="path147" /><path
         d="m 483.33404,396.59369 c 2.26,-1.63 23.09,-13.7 38.95,-21.41 0.1,0 0.17,0.1 0.08,0.16 -4.81,3.18 -35.9,20.21 -38.91,21.42 -0.1,0.04 -0.22,-0.1 -0.12,-0.17 z"
         style="fill:#263238"
         id="path148" /><path
         d="m 472.60404,275.48369 c 1.81,-13.7 3.81,-27.39 6.09,-41 2.28,-13.61 4.69,-27.38 7.56,-41 q 0.52,-2.49 1.07,-5 a 0.20396078,0.20396078 0 0 1 0.4,0.08 c -2.4,13.48 -4.88,26.95 -7.09,40.46 -2.21,13.51 -4.28,27 -6.14,40.62 -0.46,3.36 -0.9,6.72 -1.34,10.08 a 89.61,89.61 0 0 0 -1,10.46 26.69,26.69 0 0 0 1.67,9.81 56.77,56.77 0 0 0 4.5,8.82 c 7.07,11.95 38.71,64.19 39.53,65.71 0.06,0.1 -0.08,0.2 -0.14,0.1 -7.6,-11.78 -31.16,-49.42 -38.32,-61.57 -3.24,-5.48 -6.94,-11 -8,-17.42 -1.08,-6.61 0.33,-13.56 1.21,-20.15 z"
         style="fill:#263238"
         id="path149" /><path
         d="m 483.85404,382.21369 c 0,0 0.44,44.56 0.44,44.59 -0.23,8.52 -0.59,16 -1.14,19.84 a 0.13,0.13 0 0 1 0,0.06 5.94,5.94 0 0 1 -0.7,2.62 h -0.05 c -2.58,1.65 -70.75,1.75 -73.13,1 -2.38,-0.75 -0.3,-7.64 2.35,-9.75 2.65,-2.11 28.73,-13.83 28.73,-13.83 v -44.53 z"
         style="fill:#f7a9a0"
         id="path150" /><path
         d="m 484.20404,417.65369 c 0,0 0.09,9.12 0.09,9.15 -0.23,8.52 -0.59,16 -1.14,19.84 a 0.13,0.13 0 0 1 0,0.06 11,11 0 0 1 -0.7,2.62 h -0.05 c -2.58,1.65 -70.75,1.75 -73.13,1 -2.38,-0.75 -0.3,-7.64 2.35,-9.75 2.65,-2.11 28.73,-13.83 28.73,-13.83 v -9.29 z"
         style="fill:#ebebeb"
         id="path151" /><path
         d="m 409.23404,450.24369 c 2.41,0.76 71.12,-0.44 73.7,-2.15 1,-0.64 1.4,-10.66 1.55,-22.78 v -0.4 l -44.34,0.28 v 0.76 c 0,0 -26.09,12.22 -28.74,14.4 -2.65,2.18 -4.59,9.13 -2.17,9.89 z"
         style="fill:#2d40be;fill-opacity:1"
         id="path152" /><path
         d="m 409.96404,447.56369 c 11.57,-0.49 58.31,-1.37 69.79,-1 0.1,0 0.1,0.07 0,0.08 -11.46,0.73 -58.2,1.23 -69.79,1.08 -0.25,0.03 -0.25,-0.15 0,-0.16 z"
         style="fill:#ffffff"
         id="path153" /><path
         d="m 436.45404,426.17369 c 4.54,-0.94 10.13,-0.33 13.67,2.85 0.14,0.13 0,0.32 -0.19,0.27 a 64.66,64.66 0 0 0 -13.45,-2.55 0.29,0.29 0 0 1 -0.03,-0.57 z"
         style="fill:#263238"
         id="path154" /><path
         d="m 433.20404,428.21369 c 4.54,-0.94 10.13,-0.33 13.66,2.85 0.14,0.13 0,0.32 -0.18,0.27 a 64.76,64.76 0 0 0 -13.46,-2.55 0.29,0.29 0 0 1 -0.02,-0.57 z"
         style="fill:#263238"
         id="path155" /><path
         d="m 429.94404,430.25369 c 4.54,-0.93 10.13,-0.33 13.67,2.85 0.14,0.13 0,0.32 -0.19,0.28 a 64,64 0 0 0 -13.45,-2.56 0.29,0.29 0 0 1 -0.03,-0.57 z"
         style="fill:#263238"
         id="path156" /><path
         d="m 408.13404,447.79369 c -1.22,0.5 -0.88,4.62 0,4.94 0.88,0.32 75.8,-1.33 77.07,-1.64 1.27,-0.31 0.72,-4.87 -0.76,-5.08 -1.48,-0.21 -76.31,1.78 -76.31,1.78 z"
         style="fill:#263238"
         id="path157" /><path
         d="m 473.27404,432.82369 c 4.94,-2.57 8.95,5.09 4,7.68 -4.95,2.59 -8.95,-5.09 -4,-7.68 z"
         style="fill:#ffffff"
         id="path158" /><path
         d="m 454.03404,186.05369 c 0,0 0,0 0,0 0.26,0.81 14.29,39.27 15.62,39.89 1.49,0.69 -31,55.29 -32.94,80.65 -1.23,16.23 1.19,108 1.19,108 h 47.52 c 0,0 -2.29,-82.54 -3.37,-108.7 -0.42,-10.14 32.63,-60.63 33,-92.08 0.13,-9.91 -7,-28 -7,-28 z"
         style="fill:#37474f"
         id="path159" /><path
         d="m 481.81404,305.27369 c 0,-0.42 0.33,-0.56 0.36,-0.13 1.07,14.16 1.32,28.23 2,42.41 0.68,14.18 0.29,17.55 0.92,31.68 0.36,8 0,16 0.2,24 a 0.1,0.1 0 0 1 -0.19,0 c -1.48,-14.06 -3.28,-89.95 -3.29,-97.96 z"
         style="fill:#263238"
         id="path160" /><path
         d="m 436.74404,307.19369 a 71.45,71.45 0 0 1 1,-10.42 52.2,52.2 0 0 1 2.94,-9.78 c 2.62,-6.62 5.73,-13.08 8.7,-19.55 2.97,-6.47 6.07,-13.09 9.24,-19.57 q 2.67,-5.46 5.37,-10.91 c 1.83,-3.67 3.8,-7.28 5.71,-10.91 0.07,-0.14 0.3,0 0.23,0.11 -3.05,6.54 -6.05,13.1 -9.1,19.64 -3.05,6.54 -6,13.11 -9,19.67 -3,6.56 -5.89,12.92 -8.67,19.45 a 64.5,64.5 0 0 0 -3.39,9.61 56.36,56.36 0 0 0 -1.46,10.38 c -0.46,8.11 -0.68,16.26 -1.48,24.35 0,0.1 -0.18,0.09 -0.18,0 -0.24,-7.35 -0.13,-14.74 0.09,-22.07 z"
         style="fill:#263238"
         id="path161" /><path
         d="m 441.37404,405.28369 c 2.76,-0.36 23.82,-1.09 41.43,-0.34 a 0.09,0.09 0 0 1 0,0.18 c -5.74,0.51 -38.18,0.73 -41.41,0.36 -0.11,-0.01 -0.15,-0.19 -0.02,-0.2 z"
         style="fill:#263238"
         id="path162" /><path
         d="m 463.11404,223.84369 a 91,91 0 0 1 14.86,5.15 0.16446884,0.16446884 0 0 1 -0.11,0.31 c -5,-1.56 -10.06,-3 -14.95,-4.86 a 0.32,0.32 0 0 1 0.2,-0.6 z"
         style="fill:#263238"
         id="path163" /><path
         d="m 458.31404,191.26369 c 0,-0.16 0.29,-0.23 0.3,0 0.55,5.68 1.42,10.63 2.44,15.88 0.48,2.44 3.85,15.84 8,14.41 0.7,-0.24 1,-1 1,-2.07 a 17,17 0 0 0 -1,-4.11 c -0.76,-2.8 -1.44,-5.62 -2,-8.47 a 79.18,79.18 0 0 1 -1.47,-16.11 0.14,0.14 0 0 1 0.28,0 148.51,148.51 0 0 0 3.57,22.08 c 0.9,3.48 3.23,8.62 -0.42,9.55 -3.65,0.93 -7.06,-7.73 -7.77,-10.13 a 82,82 0 0 1 -2.93,-21.03 z"
         style="fill:#263238"
         id="path164" /><path
         d="m 469.03404,221.91369 a 22.3,22.3 0 0 1 1.25,2.72 6.32,6.32 0 0 1 0.63,2.27 c 0,0.15 -0.19,0.19 -0.29,0.1 a 8.49,8.49 0 0 1 -1.22,-2.16 c -0.41,-0.84 -0.84,-1.67 -1.23,-2.52 a 0.48,0.48 0 0 1 0.86,-0.41 z"
         style="fill:#263238"
         id="path165" /><path
         d="m 476.94404,319.23369 c -0.24,-6.75 -1,-13.84 1.22,-20.36 a 67.71,67.71 0 0 1 4.34,-9.25 q 2.46,-4.75 4.85,-9.58 c 6.35,-12.82 12.33,-25.85 17.67,-39.13 2.58,-6.39 4.88,-12.95 5.8,-19.81 a 60.9,60.9 0 0 0 -1.33,-21.56 c -0.4,-1.76 -0.83,-3.51 -1.31,-5.25 0,-0.12 0.16,-0.2 0.2,-0.07 a 71.08,71.08 0 0 1 3.71,20.62 58.45,58.45 0 0 1 -3.58,19.7 c -2.28,6.64 -5.13,13.08 -7.94,19.51 q -4.35,9.92 -9,19.7 c -3.11,6.48 -6.43,12.85 -9.71,19.25 a 35.18,35.18 0 0 0 -3.65,9.71 50.36,50.36 0 0 0 -0.39,10.63 c 0.56,14.95 1.85,64.69 2,79.6 0,1.89 0.05,3.78 0.07,5.68 0,0.16 -0.25,0.19 -0.26,0 -0.94,-14.86 -2.15,-64.49 -2.69,-79.39 z"
         style="fill:#263238"
         id="path166" /><path
         d="m 487.60404,195.73369 c 0,-0.1 0.17,-0.08 0.18,0 0.56,4.12 0.88,8.38 2.87,12.11 1.82,3.43 5,5.64 8.46,7.18 a 64.22,64.22 0 0 0 6.17,2.28 c 0.15,0 0.12,0.28 -0.05,0.24 -3.93,-0.81 -7.92,-1.73 -11.34,-3.94 -3.66,-2.36 -5.54,-6.14 -6.14,-10.37 a 35.58,35.58 0 0 1 -0.15,-7.5 z"
         style="fill:#263238"
         id="path167" /><path
         d="m 510.53404,189.06369 c -0.09,0.19 -62.6,17.22 -63.3,16.77 -0.07,0 -2.65,-1.44 -3.21,-6.27 -0.16,-1.33 1.62,-7 1.67,-11.27 0.14,-14.81 -0.44,-42.31 3.59,-57.08 1.08,-4 9.63,-8.52 14.32,-5.63 21.13,12.99 47.05,63.23 46.93,63.48 z"
         style="fill:#ebebeb"
         id="path168" /><path
         d="m 460.46404,124.42369 c 0,0 2.32,31.53 3.16,35.19 0.58,2.56 7.66,28.3 11.3,46.9 1.56,8 0.83,20.51 0.83,20.51 0,0 21.77,-7.07 28.44,-11.61 3.86,-2.63 12.47,-14 12.47,-14 0,0 -13.78,-30.57 -21.63,-42.05 -7.85,-11.48 -22.77,-31.35 -29.76,-34.25 -3.15,-1.32 -4.81,-0.69 -4.81,-0.69 z"
         style="fill:#2d40be;fill-opacity:1"
         id="path169" /><path
         d="m 499.43404,177.48369 a 3.49,3.49 0 0 0 -1.86,2.76 11,11 0 0 0 -0.47,4.95 c 0.13,0.9 0.53,2.23 1.7,2 1.17,-0.23 1.82,-2.23 2.13,-3.25 0.31,-1.02 1.23,-7.62 -1.5,-6.46 z m -9.27,7.66 c -1.28,1.06 -1.14,3.24 -0.87,4.69 a 10.27,10.27 0 0 0 1.16,3.39 3,3 0 0 0 1.3,1.4 c 1.59,0.65 1.71,-1.44 1.83,-2.49 a 10.56,10.56 0 0 0 -0.71,-5.78 c -0.52,-1.09 -1.53,-2.19 -2.71,-1.21 z m 4.49,-12.18 c -1,-0.12 -1.53,0.63 -1.81,1.62 a 9.12,9.12 0 0 0 -0.39,3.56 c 0.08,0.73 0.24,2 1.05,2.3 0.81,0.3 1.46,-0.53 1.75,-1.18 0.52,-1.19 1.56,-6.02 -0.6,-6.3 z m -15.16,50.95 c -0.77,1.57 -2.34,0.27 -3.6,-1.26 v 0 c 0,-1.81 0.05,-4 0,-6.36 l 0.34,0.28 a 11.15,11.15 0 0 1 2.89,4 3.52,3.52 0 0 1 0.37,3.34 z m 7.19,-0.7 -2.29,0.83 a 9.91,9.91 0 0 1 -2.91,-4.21 c -0.2,-0.68 -0.29,-1.75 0.55,-2 0.84,-0.25 1.76,0.56 2.3,1.05 a 9.13,9.13 0 0 1 2,2.95 2.74,2.74 0 0 1 0.35,1.38 z m -5.89,-54 c 0.95,-0.05 1.84,1.3 2.26,2 a 9.78,9.78 0 0 1 1.24,3.8 c 0.1,0.77 0.38,2.4 -0.34,3 -0.87,0.71 -1.71,-0.1 -2.33,-1.21 a 8.8,8.8 0 0 1 -1.85,-5.55 c 0.01,-0.7 0.09,-1.98 1.02,-2.04 z m 7.12,28 c -1.26,0.93 -0.72,2.76 -0.23,3.95 a 10.82,10.82 0 0 0 3.83,4.71 c 0.71,0.48 1.78,1.06 2.54,0.78 0.76,-0.28 1.12,-0.9 1,-1.9 a 10,10 0 0 0 -2.89,-5.54 c -0.92,-1.02 -2.62,-3.17 -4.25,-1.96 z m 7.92,0.34 c 0.84,2.81 2.39,4 3.12,3.67 1.44,-0.65 1.19,-3.11 0.65,-4.92 -0.42,-1.42 -1.85,-3.78 -2.94,-3.56 -0.89,0.22 -1.63,2.26 -0.83,4.85 z m -28.92,-49 a 10.25,10.25 0 0 1 -1.65,3.18 7.64,7.64 0 0 1 -2.34,2.25 c -0.17,-1.65 -0.35,-3.56 -0.52,-5.58 v 0 a 16.47,16.47 0 0 1 1.56,-1.34 c 0.84,-0.65 2.44,-2 3.07,-0.4 a 3,3 0 0 1 -0.12,1.93 z m 4.67,-0.94 c 1.54,0.27 2.49,-1.38 3,-2.56 a 10.71,10.71 0 0 0 0.76,-6 c -0.14,-0.84 -0.46,-2 -1.18,-2.38 -0.72,-0.38 -1.43,-0.18 -2.08,0.57 a 10.05,10.05 0 0 0 -2,5.92 c -0.12,1.43 -0.5,4.15 1.5,4.49 z m -5.22,-6 c -1.34,2.35 -3.31,3.24 -4.06,2.72 a 0.8,0.8 0 0 1 -0.29,-0.4 c 0,0 0,0 0,0 0,-0.39 -0.07,-0.79 -0.11,-1.19 v 0 a 8.53,8.53 0 0 1 0.95,-3 c 0.94,-1.64 2.55,-3.52 4,-2.92 0.75,0.38 0.96,2.32 -0.49,4.86 z m 42.18,55.11 c -0.75,1 -0.4,2.27 0.32,3.41 a 9.29,9.29 0 0 0 1.87,2.33 c 0.48,0.42 1.26,0.85 1.77,0.2 0.51,-0.65 0.12,-2 -0.17,-2.71 -0.37,-0.83 -2.3,-5.1 -3.79,-3.16 z m -19.6,-33.58 a 2.44,2.44 0 0 0 -0.67,2.72 7.54,7.54 0 0 0 0.82,2.3 c 0.26,0.46 0.75,1 1.32,0.64 0.57,-0.36 0.63,-1.53 0.59,-2.15 -0.04,-0.74 -0.39,-4.54 -2.06,-3.44 z"
         style="fill:#2b0000"
         id="path170" /><path
         d="m 453.78404,140.60369 c 3.53,-0.84 6.5,-10.12 6.68,-15.1 0,-0.34 -1.32,-2 -3.39,-5.27 -1.26,-2 -2.6,-4.25 -3.68,-6.39 l -11.82,10 a 38.11,38.11 0 0 1 5.45,7.59 5.23,5.23 0 0 1 0.35,0.92 1.66,1.66 0 0 0 0.06,0.16 c 0.6,1.85 2.94,8.9 6.35,8.09 z"
         style="fill:#f7a9a0"
         id="path171" /><path
         d="m 448.94404,134.50369 c -0.24,0.13 -0.48,0.24 -0.71,0.35 -0.38,-1 -0.66,-1.82 -0.81,-2.3 a 1.56,1.56 0 0 0 -0.05,-0.16 5.63,5.63 0 0 0 -0.35,-0.93 38.24,38.24 0 0 0 -5.45,-7.58 l 11.82,-10 c 0.23,0.45 0.46,0.9 0.71,1.36 1.37,4.88 2.93,14.96 -5.16,19.26 z"
         style="fill:#263238"
         id="path172" /><path
         d="m 447.69404,99.353696 c 3.88,4.000004 8.39,18.999994 6.57,23.839994 -2.64,6.95 -10.46,11.48 -17.25,7.51 -6.57,-3.85 -12.1,-23.55 -9.74,-28.25999 3.48,-6.950004 14.69,-9.020004 20.42,-3.090004 z"
         style="fill:#f7a9a0"
         id="path173" /><path
         d="m 438.59404,115.02369 c 0,0 0.09,0 0.11,0.06 0.33,1 0.88,2.1 1.9,2.1 0,0 0.05,0 0,0.06 -1.14,0.25 -1.85,-1.21 -2.01,-2.22 z"
         style="fill:#263238"
         id="path174" /><path
         d="m 439.09404,113.66369 c 1.55,-0.71 2.86,2.45 1.42,3.1 -1.44,0.65 -2.72,-2.5 -1.42,-3.1 z"
         style="fill:#263238"
         id="path175" /><path
         d="m 433.03404,117.39369 c 0,0 -0.05,0.08 0,0.12 0.43,1 0.77,2.14 0,2.83 0,0 0,0.07 0,0 1,-0.55 0.52,-2.1 0,-2.95 z"
         style="fill:#263238"
         id="path176" /><path
         d="m 431.69404,116.73369 c -1.62,0.53 -0.44,3.74 1.06,3.24 1.5,-0.5 0.28,-3.68 -1.06,-3.24 z"
         style="fill:#263238"
         id="path177" /><path
         d="m 439.54404,111.11369 a 13,13 0 0 1 -1.4,0.11 2.22,2.22 0 0 1 -1.44,-0.15 0.72,0.72 0 0 1 -0.26,-0.85 1.8,1.8 0 0 1 1.57,-0.9 2.63,2.63 0 0 1 1.85,0.42 0.77,0.77 0 0 1 -0.32,1.37 z"
         style="fill:#263238"
         id="path178" /><path
         d="m 429.38404,114.58369 a 11.68,11.68 0 0 0 1.12,-0.84 c 0.43,-0.33 0.8,-0.54 1,-1.08 a 0.72,0.72 0 0 0 -0.38,-0.79 1.76,1.76 0 0 0 -1.77,0.37 2.62,2.62 0 0 0 -1.1,1.54 0.77,0.77 0 0 0 1.13,0.8 z"
         style="fill:#263238"
         id="path179" /><path
         d="m 443.47404,123.19369 c -0.14,0.32 -0.25,0.74 -0.59,0.91 a 2.81,2.81 0 0 1 -1.15,0.19 0.035,0 -90 0 0 0,0.07 1.44,1.44 0 0 0 1.46,0 1.14,1.14 0 0 0 0.41,-1.19 c -0.03,-0.04 -0.11,-0.03 -0.13,0.02 z"
         style="fill:#263238"
         id="path180" /><path
         d="m 441.23404,120.69369 a 3.63,3.63 0 0 1 -1.61,2.4 4.48,4.48 0 0 1 -1.17,0.55 l -0.24,0.06 -0.23,0.06 a 0.27,0.27 0 0 1 -0.29,-0.14 v 0 -0.11 0 -0.08 c -0.33,-0.74 -0.73,-1.92 -0.73,-1.92 -0.22,0.25 -1.36,1.46 -1.5,1.06 a 54.07,54.07 0 0 1 -2.87,-10.6 0.1,0.1 0 0 1 0.19,0 c 1.23,3.16 1.9,6.52 3.09,9.71 a 6.62,6.62 0 0 1 1.37,-1.13 c 0.12,0 0.73,2.29 0.91,2.61 v 0 a 5,5 0 0 0 3,-2.49 c 0,-0.12 0.11,-0.08 0.08,0.02 z"
         style="fill:#263238"
         id="path181" /><path
         d="m 453.21404,113.83369 c -2.88,0.53 -5.25,-6.45 -5.25,-6.45 0,0 -3.87,-0.16 -7.05,-6.15999 0,0 -0.29,6.99999 -12.23,9.42999 a 10.37,10.37 0 0 1 -1.13,-6.25999 43.45,43.45 0 0 0 -0.86,7.13999 c 0,0 -5.89,-8.63999 1.15,-14.689994 2.8,-2.4 7.82,-3.75 16.53,-2.51 0,0 0,-5 1,-4.65 1,0.35 0.77,5 0.77,5 0,0 2.95,-2.1 3.73,-1.59 0.78,0.51 -2.22,2.3 -2.22,2.3 a 6.86,6.86 0 0 1 6.63,6.000004 c 1,5.64999 0.36,12.17999 -1.07,12.43999 z"
         style="fill:#263238"
         id="path182" /><path
         d="m 446.73404,95.653696 a 6.27,6.27 0 0 1 7.73,3 11.66,11.66 0 0 1 0.94,5.190004 22.09,22.09 0 0 1 -0.89,5.47999 c 0,0.1 -0.18,0 -0.15,-0.06 a 16.5,16.5 0 0 0 0.5,-4.99999 15.67,15.67 0 0 0 -0.77,-4.810004 6,6 0 0 0 -7.31,-3.61 c -0.09,0.01 -0.14,-0.15 -0.05,-0.19 z"
         style="fill:#263238"
         id="path183" /><path
         d="m 433.88404,93.103696 a 24.17,24.17 0 0 1 6.3,0.22 17.58,17.58 0 0 1 5.73,1.71 c 0.09,0 0,0.19 -0.06,0.15 a 32,32 0 0 0 -11.36,-1.27 c -3.54,0.14 -7.36,1.4 -9,4.84 0,0.06 -0.11,0 -0.09,0 1.33,-3.55 5,-5.26 8.48,-5.65 z"
         style="fill:#263238"
         id="path184" /><path
         d="m 450.50404,112.55369 c 0,0 1,-6 3.54,-5.89 2.54,0.11 3.38,7.79 1.42,9.84 a 2.72,2.72 0 0 1 -3.9,0.28 z"
         style="fill:#f7a9a0"
         id="path185" /><path
         d="m 454.21404,108.91369 c 0,0 0.07,0 0.05,0.06 -1.35,1.5 -1.48,3.48 -1.31,5.39 a 1.49,1.49 0 0 1 1.83,-1.34 c 0.06,0 0.05,0.1 0,0.11 a 1.68,1.68 0 0 0 -1.4,1.32 8.21,8.21 0 0 0 -0.14,1.72 c 0,0.19 -0.32,0.24 -0.34,0 v 0 c -1.09,-2.18 -0.87,-5.98 1.31,-7.26 z"
         style="fill:#263238"
         id="path186" /><path
         d="m 473.17404,139.71369 c 5.07,17.76 8.29,51.21 5.72,57.29 -2.28,5.38 -19.41,17.88 -29.26,24.56 -3.21,2.18 -18.75,-22.38 -15.2,-24.52 4.84,-2.9 22.19,-14.37 22.61,-15.61 0.42,-1.24 2,-26.38 4.67,-40.79 2.4,-13.06 9.55,-7.65 11.46,-0.93 z"
         style="fill:#f7a9a0"
         id="path187" /><path
         d="m 401.65404,226.00369 c 2.43,2.48 8,-4 8,-4 a 6.42,6.42 0 0 0 0.59,4.31 c 1.34,2.27 5.48,1.17 5.48,1.17 a 7.94,7.94 0 0 0 1.36,4.44 c 1.5,2 5.84,1.53 5.84,1.53 a 6.91,6.91 0 0 0 3.65,3.15 c 4.22,1.38 9.13,-3.36 12.75,-5.7 a 52,52 0 0 0 11.21,-10.52 l -14.5,-23.74 c 0,0 -20.64,5.14 -24.11,8.91 -2.97,3.17 -13.97,16.67 -10.27,20.45 z"
         style="fill:#f7a9a0"
         id="path188" /><path
         d="m 409.66404,221.91369 c 2.29,-4.11 5.57,-7.68 8.76,-11.08 0.07,-0.07 0.19,0 0.12,0.11 -3.22,3.35 -5.62,7.64 -8.7,11.11 a 0.12,0.12 0 0 1 -0.18,-0.14 z"
         style="fill:#263238"
         id="path189" /><path
         d="m 415.60404,227.12369 a 11.85,11.85 0 0 1 2.15,-2.38 c 0.82,-0.79 1.66,-1.57 2.5,-2.33 q 2.55,-2.3 5.2,-4.45 c 0.08,-0.06 0.19,0 0.11,0.11 -1.68,1.53 -3.34,3.08 -5,4.67 -0.81,0.8 -1.62,1.6 -2.42,2.41 a 14.84,14.84 0 0 1 -2.36,2.19 0.16,0.16 0 0 1 -0.18,-0.22 z"
         style="fill:#263238"
         id="path190" /><path
         d="m 423.03404,233.36369 a 8.63,8.63 0 0 1 2.05,-2 l 2.35,-2 c 1.56,-1.38 3.11,-2.76 4.62,-4.18 a 0.0813941,0.0813941 0 0 1 0.12,0.11 c -1.53,1.46 -3,2.94 -4.57,4.39 -0.75,0.71 -1.51,1.41 -2.28,2.11 a 8,8 0 0 1 -2.23,1.74 c 0,0 -0.06,-0.13 -0.06,-0.17 z"
         style="fill:#263238"
         id="path191" /><path
         d="m 482.21404,180.71369 -27.57,0.34 c 0,0 3.54,-30.39 7.35,-43.62 3.2,-11.12 9.86,-10.1 13.52,4.26 3.46,13.58 6.7,39.02 6.7,39.02 z"
         style="fill:#2d40be;fill-opacity:1"
         id="path192" /><path
         d="m 481.71404,176.91369 -0.09,-0.15 a 8.8,8.8 0 0 1 -1.85,-5.55 c 0,-0.63 0.08,-1.77 0.83,-2 0.43,3.06 0.83,5.7 1.11,7.7 z m -21.45,-25.35 a 10.57,10.57 0 0 1 3.7,-4.49 c 0.84,-0.65 2.44,-2 3.07,-0.4 a 3,3 0 0 1 -0.12,1.9 10.25,10.25 0 0 1 -1.65,3.18 c -0.87,1.2 -2.34,2.8 -4,2.61 -1.66,-0.19 -1.42,-1.64 -1,-2.78 z m 9.81,-8.4 a 10.05,10.05 0 0 1 2,-5.92 c 0.65,-0.75 1.44,-1 2.08,-0.57 0.64,0.43 1,1.54 1.18,2.38 a 10.71,10.71 0 0 1 -0.76,6 c -0.53,1.18 -1.48,2.83 -3,2.56 -1.99,-0.3 -1.61,-3.02 -1.54,-4.43 z m -7.77,1.22 c -0.91,-0.64 -0.18,-3.3 0.55,-4.58 0.94,-1.64 2.55,-3.52 4,-2.92 0.74,0.3 0.95,2.24 -0.5,4.78 -1.32,2.37 -3.32,3.25 -4.05,2.74 z m -1.63,28.22 c -0.15,0.73 -0.56,2.06 -1.4,2.33 -0.84,0.27 -1.19,-0.55 -1.34,-1.18 a 9.2,9.2 0 0 1 -0.22,-3 c 0.06,-1.35 0.51,-2.61 1.68,-3 2.32,-0.7 1.49,3.92 1.28,4.87 z"
         style="fill:#263238"
         id="path193" /><path
         d="m 458.32404,175.31369 a 42.65,42.65 0 0 1 5.28,-0.4 c 1.82,-0.1 3.64,-0.13 5.46,-0.17 1.82,-0.04 9.06,0.08 10.87,0.11 0.08,0 0.07,0.14 0,0.15 -1.82,0.1 -9.05,0.51 -10.83,0.54 -1.78,0.03 -3.56,0.08 -5.34,0.05 a 46.44,46.44 0 0 1 -5.42,-0.19 c 0,0 -0.07,-0.08 -0.02,-0.09 z"
         style="fill:#263238"
         id="path194" /><path
         d="m 476.66404,146.66369 c 0.66,2.8 1.25,5.62 1.81,8.44 0.56,2.82 1.07,5.66 1.58,8.49 0.51,2.83 0.94,5.67 1.36,8.52 0.22,1.42 0.39,2.85 0.55,4.28 0.16,1.43 0.32,2.87 0.36,4.32 v 0.12 h -0.12 l -2.78,-0.08 2.77,-0.15 -0.11,0.12 c -0.33,-2.85 -0.83,-5.68 -1.31,-8.51 l -1.44,-8.5 c -0.45,-2.84 -1,-5.67 -1.4,-8.51 -0.4,-2.84 -0.9,-5.68 -1.27,-8.54 z"
         style="fill:#263238"
         id="path195" /><path
         d="m 477.90404,148.18369 a 9.74,9.74 0 0 1 0.36,2.62 8.64,8.64 0 0 1 -0.36,2.62 23.24,23.24 0 0 1 -0.14,-2.62 17.85,17.85 0 0 1 0.14,-2.62 z"
         style="fill:#263238"
         id="path196" /></g><g
       id="g217"
       transform="translate(165.51752,3.1830292)"><path
         style="fill:#2d40be;fill-opacity:1;stroke-width:0.400356"
         d="m -125.54533,449.84771 h 84.091007 c 13.6019,-12.82491 22.21115,-31.75715 22.21115,-52.88402 0,-38.63055 -28.76824,-69.94702 -64.255885,-69.94702 -35.487642,0 -64.257412,31.31647 -64.257412,69.94702 0,21.12687 8.60963,40.05911 22.21114,52.88402 z"
         id="path1" /><g
         id="g71"
         transform="matrix(0.38372486,0,0,0.41770883,-166.07227,302.46202)">
		<path
   style="fill:#26505d"
   d="m 233.032,320.756 c 0,17.756 -14.395,32.151 -32.152,32.151 h -69.836 c -17.756,0 -32.151,-14.396 -32.151,-32.151 V 193.884 c 0,-17.756 20.274,-49.79 38.031,-49.79 h 58.077 c 17.756,0 38.031,32.034 38.031,49.79 z"
   id="path44-6" />
		<path
   style="fill:#b2b2b2"
   d="m 211.844,341.012 c -17.975,5.67 -40.921,5.778 -56.862,-5.566 -19.592,-13.945 -25.042,-39.207 -27.936,-61.703 -3.334,-25.904 -1.358,-52.32 3.393,-77.944 3.242,-17.482 7.882,-36.172 17.293,-51.705 h -10.808 c -17.757,0 -38.031,32.034 -38.031,49.79 v 126.872 c 0,17.756 14.396,32.151 32.151,32.151 h 69.836 c 13.475,0 25.004,-8.293 29.788,-20.049 -6.309,3.48 -12.752,6.24 -18.824,8.154 z"
   id="path45-7" />
		<rect
   x="186.11099"
   y="144.09399"
   style="fill:#ffffff"
   width="8.8900003"
   height="208.66901"
   id="rect45-5" />
		<rect
   x="180.741"
   y="144.09399"
   style="fill:#ffffff"
   width="3.109"
   height="208.66901"
   id="rect46-3" />
		<rect
   x="98.892998"
   y="204.94"
   style="fill:#ffffff"
   width="134.13901"
   height="88.502998"
   id="rect47-5" />
		<path
   style="fill:#b2b2b2"
   d="m 222.635,255.923 c -13.455,12.766 -31.774,18.559 -50.109,15.09 -21.633,-4.096 -42.175,-18.248 -51.977,-38.215 -4.341,-8.844 -6.869,-18.27 -7.775,-27.858 H 98.893 v 88.503 H 233.032 V 242.89 c -2.872,4.747 -6.307,9.153 -10.397,13.033 z"
   id="path47" />
		<path
   style="fill:#ffffff"
   d="m 203.471,252.131 c 0,20.717 -16.793,37.511 -37.508,37.511 -20.718,0 -37.512,-16.794 -37.512,-37.511 0,-20.716 16.794,-37.51 37.512,-37.51 20.715,0 37.508,16.794 37.508,37.51 z"
   id="path48" />
		<g
   id="g51">
			<path
   style="fill:#00b1c3"
   d="m 200.242,252.691 c 0,18.933 -15.349,34.28 -34.282,34.28 -18.93,0 -34.279,-15.348 -34.279,-34.28 0,-18.934 15.349,-34.281 34.279,-34.281 18.933,0 34.282,15.348 34.282,34.281 z"
   id="path49-6" />
			<polygon
   style="fill:#ffffff"
   points="185.436,243.21 171.415,243.21 171.415,226.594 160.51,226.594 160.51,243.21 146.487,243.21 146.487,254.117 160.51,254.117 160.51,278.785 171.415,278.785 171.415,254.117 185.436,254.117 "
   id="polygon49-2" />
			<path
   style="fill:#ffffff"
   d="m 162.383,224.223 c -4.096,4.533 -6.822,10.193 -6.659,16.344 0.278,10.549 9.703,19.065 20.252,18.94 9.115,-0.107 16.3,-5.979 18.404,-14.76 0.103,-0.425 0.194,-0.853 0.279,-1.28 -3.727,-11.44 -14.475,-19.711 -27.158,-19.711 -1.749,0 -3.457,0.165 -5.118,0.467 z"
   id="path50-9" />
			<path
   style="fill:#c6c6c6"
   d="m 172.561,265.35 c -13.658,-1.766 -25.704,-13.441 -25.031,-27.718 0.285,-6.039 2.283,-11.706 5.454,-16.673 -12.495,5.117 -21.303,17.393 -21.303,31.732 0,18.933 15.349,34.28 34.279,34.28 18.934,0 34.282,-15.348 34.282,-34.28 0,-0.618 -0.018,-1.23 -0.05,-1.838 -4.951,10.289 -16.272,15.966 -27.631,14.497 z"
   id="path51-1" />
		</g>
		<g
   id="g52">
			<rect
   x="133.80901"
   y="131.64799"
   style="fill:#ffffff"
   width="64.304001"
   height="12.446"
   id="rect51" />
			<rect
   x="133.80901"
   y="137.871"
   style="fill:#b2b2b2"
   width="64.304001"
   height="6.223"
   id="rect52" />
		</g>
		<path
   style="fill:#e74645"
   d="m 206.93,129.574 c 0,1.145 -0.93,2.073 -2.075,2.073 h -77.786 c -1.146,0 -2.076,-0.928 -2.076,-2.073 V 98.459 c 0,-1.146 0.93,-2.074 2.076,-2.074 h 77.786 c 1.145,0 2.075,0.929 2.075,2.074 z"
   id="path52-2" />
		<path
   style="fill:#c6c6c6"
   d="m 167.777,124.746 c -11.098,-0.252 -25.014,-3.97 -29.139,-15.686 -1.46,-4.144 -1.731,-8.42 -1.286,-12.675 h -10.285 c -1.146,0 -2.076,0.929 -2.076,2.074 v 31.115 c 0,1.145 0.93,2.073 2.076,2.073 h 77.786 c 1.145,0 2.075,-0.928 2.075,-2.073 v -14.787 c -12.155,5.565 -25.683,10.267 -39.151,9.959 z"
   id="path53-7" />
		<g
   id="g68">
			<path
   style="fill:#b2b2b2"
   d="m 131.086,126.332 c 0,0.788 -0.638,1.426 -1.426,1.426 v 0 c -0.787,0 -1.426,-0.639 -1.426,-1.426 V 101.7 c 0,-0.787 0.639,-1.426 1.426,-1.426 v 0 c 0.788,0 1.426,0.639 1.426,1.426 z"
   id="path54-0" />
			<path
   style="fill:#b2b2b2"
   d="m 136.272,126.332 c 0,0.788 -0.638,1.426 -1.425,1.426 v 0 c -0.789,0 -1.425,-0.639 -1.425,-1.426 V 101.7 c 0,-0.787 0.637,-1.426 1.425,-1.426 v 0 c 0.788,0 1.425,0.639 1.425,1.426 z"
   id="path55-9" />
			<path
   style="fill:#b2b2b2"
   d="m 141.459,126.332 c 0,0.788 -0.64,1.426 -1.427,1.426 v 0 c -0.788,0 -1.427,-0.639 -1.427,-1.426 V 101.7 c 0,-0.787 0.639,-1.426 1.427,-1.426 v 0 c 0.787,0 1.427,0.639 1.427,1.426 z"
   id="path56-3" />
			<path
   style="fill:#b2b2b2"
   d="m 146.645,126.332 c 0,0.788 -0.639,1.426 -1.426,1.426 v 0 c -0.787,0 -1.427,-0.639 -1.427,-1.426 V 101.7 c 0,-0.787 0.64,-1.426 1.427,-1.426 v 0 c 0.787,0 1.426,0.639 1.426,1.426 z"
   id="path57-6" />
			<path
   style="fill:#b2b2b2"
   d="m 151.83,126.332 c 0,0.788 -0.638,1.426 -1.426,1.426 v 0 c -0.787,0 -1.426,-0.639 -1.426,-1.426 V 101.7 c 0,-0.787 0.639,-1.426 1.426,-1.426 v 0 c 0.788,0 1.426,0.639 1.426,1.426 z"
   id="path58-0" />
			<path
   style="fill:#b2b2b2"
   d="m 157.016,126.332 c 0,0.788 -0.638,1.426 -1.426,1.426 v 0 c -0.787,0 -1.426,-0.639 -1.426,-1.426 V 101.7 c 0,-0.787 0.639,-1.426 1.426,-1.426 v 0 c 0.788,0 1.426,0.639 1.426,1.426 z"
   id="path59-6" />
			<path
   style="fill:#b2b2b2"
   d="m 162.201,126.332 c 0,0.788 -0.638,1.426 -1.426,1.426 v 0 c -0.787,0 -1.426,-0.639 -1.426,-1.426 V 101.7 c 0,-0.787 0.639,-1.426 1.426,-1.426 v 0 c 0.788,0 1.426,0.639 1.426,1.426 z"
   id="path60-2" />
			<path
   style="fill:#b2b2b2"
   d="m 167.388,126.332 c 0,0.788 -0.639,1.426 -1.428,1.426 v 0 c -0.786,0 -1.424,-0.639 -1.424,-1.426 V 101.7 c 0,-0.787 0.638,-1.426 1.424,-1.426 v 0 c 0.789,0 1.428,0.639 1.428,1.426 z"
   id="path61-6" />
			<path
   style="fill:#b2b2b2"
   d="m 172.573,126.332 c 0,0.788 -0.639,1.426 -1.426,1.426 v 0 c -0.788,0 -1.426,-0.639 -1.426,-1.426 V 101.7 c 0,-0.787 0.638,-1.426 1.426,-1.426 v 0 c 0.787,0 1.426,0.639 1.426,1.426 z"
   id="path62-1" />
			<path
   style="fill:#b2b2b2"
   d="m 177.758,126.332 c 0,0.788 -0.638,1.426 -1.425,1.426 v 0 c -0.788,0 -1.426,-0.639 -1.426,-1.426 V 101.7 c 0,-0.787 0.638,-1.426 1.426,-1.426 v 0 c 0.787,0 1.425,0.639 1.425,1.426 z"
   id="path63-8" />
			<path
   style="fill:#b2b2b2"
   d="m 182.945,126.332 c 0,0.788 -0.639,1.426 -1.426,1.426 v 0 c -0.788,0 -1.426,-0.639 -1.426,-1.426 V 101.7 c 0,-0.787 0.638,-1.426 1.426,-1.426 v 0 c 0.787,0 1.426,0.639 1.426,1.426 z"
   id="path64-7" />
			<path
   style="fill:#b2b2b2"
   d="m 188.13,126.332 c 0,0.788 -0.638,1.426 -1.426,1.426 v 0 c -0.788,0 -1.426,-0.639 -1.426,-1.426 V 101.7 c 0,-0.787 0.638,-1.426 1.426,-1.426 v 0 c 0.788,0 1.426,0.639 1.426,1.426 z"
   id="path65-9" />
			<path
   style="fill:#b2b2b2"
   d="m 193.316,126.332 c 0,0.788 -0.638,1.426 -1.426,1.426 v 0 c -0.787,0 -1.425,-0.639 -1.425,-1.426 V 101.7 c 0,-0.787 0.638,-1.426 1.425,-1.426 v 0 c 0.788,0 1.426,0.639 1.426,1.426 z"
   id="path66-2" />
			<path
   style="fill:#b2b2b2"
   d="m 198.502,126.332 c 0,0.788 -0.639,1.426 -1.426,1.426 v 0 c -0.789,0 -1.426,-0.639 -1.426,-1.426 V 101.7 c 0,-0.787 0.637,-1.426 1.426,-1.426 v 0 c 0.787,0 1.426,0.639 1.426,1.426 z"
   id="path67-0" />
			<path
   style="fill:#b2b2b2"
   d="m 203.688,126.332 c 0,0.788 -0.638,1.426 -1.426,1.426 v 0 c -0.787,0 -1.426,-0.639 -1.426,-1.426 V 101.7 c 0,-0.787 0.639,-1.426 1.426,-1.426 v 0 c 0.788,0 1.426,0.639 1.426,1.426 z"
   id="path68-2" />
		</g>
		<path
   style="fill:#ffffff"
   d="m 161.708,113.544 c 6.215,3.468 14.038,4.589 20.958,2.687 9.836,-2.706 17.676,-9.012 21.022,-17.946 -0.232,-0.107 -0.485,-0.171 -0.757,-0.171 H 153.02 c -0.98,5.808 3.934,12.777 8.688,15.43 z"
   id="path69-3" />
		<g
   id="g70">
			<path
   style="fill:#ffffff"
   d="m 198.339,152.84 c 0,0 0.228,0.043 0.627,0.155 0.386,0.124 0.999,0.259 1.689,0.526 0.687,0.278 1.516,0.669 2.408,1.195 0.913,0.508 1.954,1.104 3.035,1.84 1.057,0.731 2.314,1.584 3.296,2.521 1.035,0.944 2.104,1.966 3.15,3.072 1.048,1.105 2.112,2.268 3.11,3.51 1.034,1.219 1.987,2.525 2.958,3.821 0.909,1.335 1.684,2.717 2.435,4.109 0.757,1.379 1.439,2.779 2.057,4.158 1.244,2.752 2.205,5.439 2.872,7.826 0.652,2.396 1.042,4.474 1.227,5.974 0.123,0.733 0.128,1.361 0.171,1.766 0.027,0.414 0.023,0.645 0.023,0.645 l -0.572,0.342 c 0,0 -0.436,-0.656 -1.202,-1.801 -0.753,-1.152 -1.874,-2.77 -3.142,-4.758 -1.275,-1.984 -2.762,-4.297 -4.354,-6.777 -0.796,-1.24 -1.619,-2.52 -2.456,-3.822 -0.852,-1.289 -1.648,-2.649 -2.569,-3.919 -1.813,-2.563 -3.624,-5.124 -5.324,-7.527 -0.849,-1.201 -1.671,-2.363 -2.449,-3.465 -0.744,-1.135 -1.61,-2.051 -2.345,-2.963 -1.508,-1.784 -2.687,-3.349 -3.584,-4.387 -0.962,-0.987 -1.511,-1.551 -1.511,-1.551 z"
   id="path70-7" />
		</g>
	</g><g
         id="g98"
         transform="matrix(0.38372486,0,0,0.41770883,-160.75441,302.15212)">
		<path
   style="fill:#22aa99"
   d="m 326.308,327.831 c 0,13.85 -11.226,25.076 -25.076,25.076 h -54.466 c -13.849,0 -25.076,-11.227 -25.076,-25.076 v -98.95 c 0,-13.849 15.813,-38.832 29.661,-38.832 h 45.296 c 13.848,0 29.66,24.983 29.66,38.832 v 98.95 z"
   id="path71-5" />
		<path
   style="fill:#b2b2b2"
   d="m 309.783,343.63 c -14.019,4.422 -31.915,4.507 -44.348,-4.342 -15.281,-10.876 -19.531,-30.579 -21.788,-48.123 -2.6,-20.203 -1.059,-40.806 2.645,-60.791 2.528,-13.634 6.149,-28.21 13.487,-40.325 h -8.429 c -13.849,0 -29.661,24.983 -29.661,38.832 v 98.95 c 0,13.85 11.227,25.076 25.076,25.076 h 54.466 c 10.509,0 19.502,-6.468 23.233,-15.637 -4.92,2.714 -9.944,4.866 -14.681,6.36 z"
   id="path72-9" />
		<rect
   x="289.71301"
   y="190.049"
   style="fill:#ffffff"
   width="6.9349999"
   height="162.745"
   id="rect72" />
		<rect
   x="285.52499"
   y="190.049"
   style="fill:#ffffff"
   width="2.4260001"
   height="162.745"
   id="rect73" />
		<rect
   x="221.69"
   y="237.504"
   style="fill:#ffffff"
   width="104.617"
   height="69.025002"
   id="rect74" />
		<path
   style="fill:#b2b2b2"
   d="m 318.2,277.268 c -10.494,9.956 -24.782,14.475 -39.083,11.768 -16.872,-3.193 -32.893,-14.231 -40.538,-29.804 -3.386,-6.898 -5.357,-14.25 -6.064,-21.728 H 221.69 v 69.025 h 104.617 v -39.427 c -2.239,3.702 -4.918,7.138 -8.107,10.166 z"
   id="path74-2" />
		<path
   style="fill:#ffffff"
   d="m 303.253,274.311 c 0,16.156 -13.097,29.254 -29.253,29.254 -16.159,0 -29.256,-13.098 -29.256,-29.254 0,-16.158 13.097,-29.256 29.256,-29.256 16.156,0 29.253,13.097 29.253,29.256 z"
   id="path75-2" />
		<g
   id="g78">
			<path
   style="fill:#00b1c3"
   d="m 300.734,274.747 c 0,14.766 -11.97,26.735 -26.736,26.735 -14.765,0 -26.735,-11.97 -26.735,-26.735 0,-14.767 11.97,-26.737 26.735,-26.737 14.767,0 26.736,11.97 26.736,26.737 z"
   id="path76-8" />
			<polygon
   style="fill:#ffffff"
   points="289.188,275.859 289.188,267.353 278.252,267.353 278.252,254.393 269.747,254.393 269.747,267.353 258.81,267.353 258.81,275.859 269.747,275.859 269.747,295.099 278.252,295.099 278.252,275.859 "
   id="polygon76" />
			<path
   style="fill:#ffffff"
   d="m 271.207,252.543 c -3.193,3.535 -5.32,7.95 -5.193,12.747 0.218,8.228 7.567,14.869 15.795,14.771 7.109,-0.083 12.712,-4.663 14.354,-11.511 0.079,-0.332 0.15,-0.664 0.218,-0.998 -2.907,-8.923 -11.289,-15.374 -21.182,-15.374 -1.363,0.001 -2.696,0.131 -3.992,0.365 z"
   id="path77-9" />
			<path
   style="fill:#c6c6c6"
   d="m 279.146,284.62 c -10.651,-1.378 -20.047,-10.483 -19.523,-21.618 0.222,-4.71 1.781,-9.131 4.253,-13.004 -9.745,3.991 -16.613,13.564 -16.613,24.749 0,14.766 11.97,26.735 26.735,26.735 14.767,0 26.736,-11.97 26.736,-26.735 0,-0.482 -0.013,-0.96 -0.038,-1.434 -3.862,8.025 -12.692,12.453 -21.55,11.307 z"
   id="path78-7" />
		</g>
		<g
   id="g79">
			<rect
   x="248.923"
   y="180.342"
   style="fill:#ffffff"
   width="50.152"
   height="9.7069998"
   id="rect78" />
			<rect
   x="248.923"
   y="185.196"
   style="fill:#b2b2b2"
   width="50.152"
   height="4.8530002"
   id="rect79" />
		</g>
		<path
   style="fill:#26505d"
   d="m 305.95,178.725 c 0,0.893 -0.725,1.617 -1.619,1.617 h -60.666 c -0.894,0 -1.62,-0.724 -1.62,-1.617 v -24.267 c 0,-0.894 0.726,-1.618 1.62,-1.618 h 60.666 c 0.894,0 1.619,0.724 1.619,1.618 z"
   id="path79-3" />
		<path
   style="fill:#c6c6c6"
   d="m 275.415,174.958 c -8.656,-0.197 -19.509,-3.095 -22.726,-12.233 -1.139,-3.232 -1.351,-6.566 -1.003,-9.885 h -8.021 c -0.894,0 -1.62,0.724 -1.62,1.618 v 24.267 c 0,0.893 0.726,1.617 1.62,1.617 h 60.666 c 0.894,0 1.619,-0.724 1.619,-1.617 v -11.532 c -9.48,4.339 -20.031,8.007 -30.535,7.765 z"
   id="path80-6" />
		<g
   id="g95">
			<path
   style="fill:#b2b2b2"
   d="m 246.799,176.196 c 0,0.615 -0.498,1.113 -1.112,1.113 v 0 c -0.614,0 -1.111,-0.498 -1.111,-1.113 v -19.211 c 0,-0.614 0.497,-1.112 1.111,-1.112 v 0 c 0.614,0 1.112,0.498 1.112,1.112 z"
   id="path81-1" />
			<path
   style="fill:#b2b2b2"
   d="m 250.844,176.196 c 0,0.615 -0.497,1.113 -1.112,1.113 v 0 c -0.614,0 -1.112,-0.498 -1.112,-1.113 v -19.211 c 0,-0.614 0.498,-1.112 1.112,-1.112 v 0 c 0.615,0 1.112,0.498 1.112,1.112 z"
   id="path82-2" />
			<path
   style="fill:#b2b2b2"
   d="m 254.888,176.196 c 0,0.615 -0.499,1.113 -1.113,1.113 v 0 c -0.614,0 -1.111,-0.498 -1.111,-1.113 v -19.211 c 0,-0.614 0.497,-1.112 1.111,-1.112 v 0 c 0.614,0 1.113,0.498 1.113,1.112 z"
   id="path83-9" />
			<path
   style="fill:#b2b2b2"
   d="m 258.934,176.196 c 0,0.615 -0.499,1.113 -1.113,1.113 v 0 c -0.614,0 -1.112,-0.498 -1.112,-1.113 v -19.211 c 0,-0.614 0.499,-1.112 1.112,-1.112 v 0 c 0.615,0 1.113,0.498 1.113,1.112 z"
   id="path84-3" />
			<path
   style="fill:#b2b2b2"
   d="m 262.977,176.196 c 0,0.615 -0.499,1.113 -1.112,1.113 v 0 c -0.614,0 -1.112,-0.498 -1.112,-1.113 v -19.211 c 0,-0.614 0.498,-1.112 1.112,-1.112 v 0 c 0.614,0 1.112,0.498 1.112,1.112 z"
   id="path85-1" />
			<path
   style="fill:#b2b2b2"
   d="m 267.022,176.196 c 0,0.615 -0.498,1.113 -1.111,1.113 v 0 c -0.615,0 -1.113,-0.498 -1.113,-1.113 v -19.211 c 0,-0.614 0.499,-1.112 1.113,-1.112 v 0 c 0.614,0 1.111,0.498 1.111,1.112 z"
   id="path86-9" />
			<path
   style="fill:#b2b2b2"
   d="m 271.066,176.196 c 0,0.615 -0.498,1.113 -1.113,1.113 v 0 c -0.614,0 -1.111,-0.498 -1.111,-1.113 v -19.211 c 0,-0.614 0.497,-1.112 1.111,-1.112 v 0 c 0.615,0 1.113,0.498 1.113,1.112 z"
   id="path87-4" />
			<path
   style="fill:#b2b2b2"
   d="m 275.11,176.196 c 0,0.615 -0.498,1.113 -1.112,1.113 v 0 c -0.614,0 -1.111,-0.498 -1.111,-1.113 v -19.211 c 0,-0.614 0.497,-1.112 1.111,-1.112 v 0 c 0.614,0 1.112,0.498 1.112,1.112 z"
   id="path88-7" />
			<path
   style="fill:#b2b2b2"
   d="m 279.156,176.196 c 0,0.615 -0.499,1.113 -1.112,1.113 v 0 c -0.615,0 -1.112,-0.498 -1.112,-1.113 v -19.211 c 0,-0.614 0.498,-1.112 1.112,-1.112 v 0 c 0.614,0 1.112,0.498 1.112,1.112 z"
   id="path89-8" />
			<path
   style="fill:#b2b2b2"
   d="m 283.199,176.196 c 0,0.615 -0.498,1.113 -1.111,1.113 v 0 c -0.615,0 -1.112,-0.498 -1.112,-1.113 v -19.211 c 0,-0.614 0.498,-1.112 1.112,-1.112 v 0 c 0.613,0 1.111,0.498 1.111,1.112 z"
   id="path90-4" />
			<path
   style="fill:#b2b2b2"
   d="m 287.245,176.196 c 0,0.615 -0.499,1.113 -1.113,1.113 v 0 c -0.614,0 -1.112,-0.498 -1.112,-1.113 v -19.211 c 0,-0.614 0.498,-1.112 1.112,-1.112 v 0 c 0.615,0 1.113,0.498 1.113,1.112 z"
   id="path91-5" />
			<path
   style="fill:#b2b2b2"
   d="m 291.288,176.196 c 0,0.615 -0.498,1.113 -1.111,1.113 v 0 c -0.614,0 -1.112,-0.498 -1.112,-1.113 v -19.211 c 0,-0.614 0.499,-1.112 1.112,-1.112 v 0 c 0.614,0 1.111,0.498 1.111,1.112 z"
   id="path92-0" />
			<path
   style="fill:#b2b2b2"
   d="m 295.333,176.196 c 0,0.615 -0.498,1.113 -1.112,1.113 v 0 c -0.614,0 -1.112,-0.498 -1.112,-1.113 v -19.211 c 0,-0.614 0.498,-1.112 1.112,-1.112 v 0 c 0.614,0 1.112,0.498 1.112,1.112 z"
   id="path93-3" />
			<path
   style="fill:#b2b2b2"
   d="m 299.378,176.196 c 0,0.615 -0.499,1.113 -1.112,1.113 v 0 c -0.615,0 -1.112,-0.498 -1.112,-1.113 v -19.211 c 0,-0.614 0.497,-1.112 1.112,-1.112 v 0 c 0.613,0 1.112,0.498 1.112,1.112 z"
   id="path94-6" />
			<path
   style="fill:#b2b2b2"
   d="m 303.422,176.196 c 0,0.615 -0.498,1.113 -1.112,1.113 v 0 c -0.613,0 -1.111,-0.498 -1.111,-1.113 v -19.211 c 0,-0.614 0.498,-1.112 1.111,-1.112 v 0 c 0.615,0 1.112,0.498 1.112,1.112 z"
   id="path95-1" />
		</g>
		<path
   style="fill:#ffffff"
   d="m 270.681,166.222 c 4.847,2.705 10.949,3.58 16.345,2.095 7.672,-2.109 13.786,-7.028 16.396,-13.996 -0.18,-0.083 -0.378,-0.133 -0.59,-0.133 h -38.927 c -0.765,4.53 3.068,9.964 6.776,12.034 z"
   id="path96-0" />
		<g
   id="g97">
			<path
   style="fill:#ffffff"
   d="m 299.251,196.87 c 0,0 0.178,0.033 0.488,0.121 0.303,0.097 0.78,0.202 1.317,0.411 0.535,0.217 1.183,0.521 1.878,0.932 0.712,0.396 1.525,0.86 2.368,1.435 0.824,0.571 1.804,1.235 2.571,1.966 0.808,0.736 1.641,1.533 2.457,2.396 0.817,0.862 1.648,1.767 2.426,2.737 0.806,0.951 1.549,1.97 2.307,2.98 0.708,1.041 1.313,2.119 1.897,3.204 0.592,1.076 1.123,2.168 1.605,3.243 0.97,2.148 1.719,4.242 2.24,6.104 0.509,1.87 0.813,3.489 0.957,4.659 0.096,0.572 0.099,1.062 0.133,1.378 0.022,0.322 0.018,0.503 0.018,0.503 l -0.446,0.266 c 0,0 -0.34,-0.511 -0.937,-1.404 -0.588,-0.897 -1.462,-2.161 -2.451,-3.711 -0.995,-1.547 -2.154,-3.352 -3.397,-5.286 -0.62,-0.966 -1.262,-1.965 -1.915,-2.979 -0.664,-1.007 -1.286,-2.066 -2.004,-3.057 -1.415,-1.999 -2.827,-3.997 -4.152,-5.871 -0.662,-0.938 -1.304,-1.844 -1.911,-2.702 -0.581,-0.886 -1.257,-1.601 -1.829,-2.312 -1.177,-1.391 -2.096,-2.611 -2.795,-3.421 -0.75,-0.77 -1.178,-1.209 -1.178,-1.209 z"
   id="path97-6" />
		</g>
	</g></g></g></svg>
